<?xml version="1.0" standalone="no"?>
<!DOCTYPE svg PUBLIC "-//W3C//DTD SVG 20010904//EN"
 "http://www.w3.org/TR/2001/REC-SVG-20010904/DTD/svg10.dtd">
<svg version="1.0" xmlns="http://www.w3.org/2000/svg"
 width="600.000000pt" height="800.000000pt" viewBox="0 0 600.000000 800.000000"
 preserveAspectRatio="xMidYMid meet">

<g transform="translate(0.000000,800.000000) scale(0.100000,-0.100000)"
fill="#6b9c64" stroke="none">
<path d="M1410 7358 c-141 -104 -329 -241 -487 -355 -68 -49 -122 -95 -123
-104 0 -21 26 -43 42 -36 13 5 218 155 228 166 6 7 73 57 210 157 52 38 126
93 165 122 38 28 77 52 87 52 9 0 36 -15 60 -33 56 -43 255 -188 284 -207 12
-8 98 -70 189 -137 92 -68 171 -120 176 -117 5 3 13 13 19 24 9 16 -12 34
-166 147 -318 232 -388 283 -439 319 -27 19 -65 46 -84 60 -19 13 -37 24 -41
24 -4 0 -58 -37 -120 -82z"/>
<path d="M345 7420 c-113 -47 -228 -433 -212 -714 10 -189 69 -349 147 -404
l39 -27 3 -115 3 -115 38 -3 37 -3 0 114 0 114 37 24 c76 49 139 175 163 324
37 228 -36 604 -147 753 -19 26 -72 64 -85 61 -2 0 -12 -4 -23 -9z"/>
<path d="M4547 7013 c-4 -3 -46 -6 -95 -6 -84 0 -85 0 -27 -7 l60 -8 -65 5
c-174 11 -340 12 -340 3 0 -5 -5 -10 -11 -10 -5 0 -7 5 -3 11 5 8 -12 9 -57 5
-35 -3 -98 -7 -139 -7 l-75 -2 60 -7 60 -8 -65 5 c-284 18 -284 18 -278 -64
l3 -48 -55 -3 c-30 -2 -60 -9 -66 -15 -6 -7 -24 -93 -39 -192 -15 -99 -35
-231 -44 -293 -10 -62 -15 -114 -12 -116 3 -2 41 -4 85 -5 71 -1 80 1 97 23
42 53 148 81 213 56 14 -5 43 -26 66 -46 l41 -37 37 36 c82 79 181 77 268 -5
l31 -29 189 4 c104 3 211 9 237 15 26 5 44 5 40 1 -4 -4 -24 -10 -43 -12 -27
-3 -25 -4 10 -3 l45 1 2 259 c1 142 4 260 5 262 2 1 3 53 2 114 0 84 -4 114
-15 120 -8 6 -17 4 -22 -3 -7 -9 -10 -9 -14 1 -5 12 -75 17 -86 5z m51 -20
c-16 -2 -40 -2 -55 0 -16 2 -3 4 27 4 30 0 43 -2 28 -4z m-570 -10 c-16 -2
-40 -2 -55 0 -16 2 -3 4 27 4 30 0 43 -2 28 -4z m120 0 c-10 -2 -28 -2 -40 0
-13 2 -5 4 17 4 22 1 32 -1 23 -4z m32 -43 c11 -6 25 -20 31 -33 10 -19 8 -18
-16 6 -24 23 -35 27 -84 26 l-56 -2 57 -6 c45 -5 60 -11 78 -34 18 -23 25 -25
42 -16 28 15 44 -2 28 -31 -7 -14 -8 -25 -3 -29 13 -8 65 -92 61 -97 -2 -2
-21 22 -41 52 -30 46 -35 60 -26 76 6 11 8 22 6 25 -3 2 -17 -18 -32 -45 -27
-50 -28 -50 -81 -54 -30 -1 -54 -2 -54 -1 0 1 7 9 16 18 14 14 15 20 4 40
l-13 25 -31 -50 c-17 -28 -34 -50 -39 -50 -5 0 -22 9 -37 20 -21 15 -39 19
-67 15 -21 -2 -31 -2 -23 2 8 3 18 11 22 17 5 7 8 6 8 -4 0 -8 9 -2 20 15 26
40 25 57 -1 25 l-21 -25 15 25 c8 14 20 24 26 23 6 -2 15 6 21 17 12 22 49 26
70 8 9 -8 8 -3 -3 14 -12 20 -13 28 -4 31 22 10 108 7 127 -3z m-170 -13 c0
-2 -9 -12 -20 -22 -24 -21 -27 -14 -4 9 15 15 24 20 24 13z m-530 -71 c0 -2
-8 -10 -17 -17 -16 -13 -17 -12 -4 4 13 16 21 21 21 13z m590 -80 c-22 -32
-29 -53 -25 -69 6 -21 5 -21 -8 2 -13 21 -12 26 3 41 9 9 25 31 36 48 10 17
20 30 22 27 2 -2 -10 -24 -28 -49z m-616 -15 c-4 -28 -9 -50 -11 -47 -3 3 -2
28 2 56 4 28 9 49 12 47 2 -3 1 -28 -3 -56z m820 -7 c28 -50 31 -65 17 -92
-53 -107 -65 -122 -104 -122 -24 0 -28 -3 -24 -20 4 -15 1 -18 -8 -12 -14 7
-65 78 -65 89 0 3 16 26 36 49 19 24 31 44 25 44 -5 0 -19 -12 -31 -27 -16
-20 -23 -24 -32 -15 -7 7 -31 12 -55 12 -24 0 -43 5 -43 11 0 6 9 8 23 4 21
-6 21 -6 3 10 -22 17 -24 16 -55 -40 -12 -22 -15 -30 -5 -17 13 18 26 22 70
22 l54 0 0 -55 c0 -42 4 -55 15 -55 8 0 19 -10 25 -22 11 -22 11 -22 -5 -3
-12 14 -31 20 -83 23 -37 2 -73 9 -81 16 -12 9 -13 8 -8 -6 9 -25 0 -22 -14 3
-8 15 -8 19 0 15 7 -5 11 2 11 15 0 18 -3 20 -12 11 -7 -7 -15 -12 -19 -12
-10 0 -59 89 -59 106 0 20 22 64 32 64 5 0 2 -10 -6 -22 -9 -12 -16 -29 -16
-38 0 -20 43 -100 53 -100 5 0 -4 23 -19 50 l-27 50 22 30 c12 17 17 30 12 30
-6 0 -15 8 -20 18 -8 15 -4 17 45 14 51 -4 57 -7 78 -40 12 -21 25 -44 28 -53
4 -9 21 -19 38 -23 40 -8 84 27 69 55 -11 21 0 57 11 39 5 -9 18 -5 46 13 22
14 42 26 46 26 3 1 18 -20 32 -45z m-837 -91 c-3 -10 -5 -4 -5 12 0 17 2 24 5
18 2 -7 2 -21 0 -30z m-10 -60 c-3 -10 -5 -4 -5 12 0 17 2 24 5 18 2 -7 2 -21
0 -30z m850 -25 c-14 -23 -31 -44 -38 -47 -8 -2 -7 3 4 13 10 10 24 31 32 47
9 16 18 29 21 29 3 0 -5 -19 -19 -42z m-860 -35 c-3 -10 -5 -4 -5 12 0 17 2
24 5 18 2 -7 2 -21 0 -30z m-10 -75 c-3 -7 -5 -2 -5 12 0 14 2 19 5 13 2 -7 2
-19 0 -25z m-10 -60 c-3 -7 -5 -2 -5 12 0 14 2 19 5 13 2 -7 2 -19 0 -25z
m-10 -65 c-3 -10 -5 -4 -5 12 0 17 2 24 5 18 2 -7 2 -21 0 -30z m270 11 c-3
-3 -12 -4 -19 -1 -8 3 -5 6 6 6 11 1 17 -2 13 -5z m121 -13 c20 -11 47 -29 60
-41 l24 -22 26 25 c33 30 85 57 109 57 10 -1 1 -7 -21 -15 -21 -7 -56 -28 -78
-45 l-40 -32 -26 25 c-30 27 -62 46 -101 58 -17 5 -20 8 -8 8 10 1 34 -8 55
-18z m-178 -8 c-14 -9 -40 -30 -58 -47 -21 -20 -31 -25 -26 -13 6 18 81 76 99
77 5 0 -2 -7 -15 -17z m528 3 c15 -8 38 -26 51 -40 21 -22 34 -26 90 -28 l66
-2 -64 -3 c-59 -4 -66 -2 -95 25 -17 16 -44 37 -61 45 -16 9 -26 16 -22 17 4
0 20 -6 35 -14z m300 -73 c-15 -2 -42 -2 -60 0 -18 2 -6 4 27 4 33 0 48 -2 33
-4z"/>
<path d="M4140 6744 c0 -5 12 -27 26 -48 20 -29 23 -38 10 -33 -9 4 -16 2 -16
-3 0 -6 12 -10 26 -10 l26 0 -23 38 c-26 44 -49 70 -49 56z"/>
<path d="M4742 6486 c2 -255 4 -303 8 -191 l6 150 2 -145 2 -145 29 -2 c27 -2
31 2 46 47 27 81 123 151 206 150 69 -1 170 -81 191 -152 13 -46 23 -58 51
-58 25 0 21 18 -5 23 l-23 4 23 2 23 1 -1 232 -1 232 -70 99 -70 98 -210 -2
-209 -2 2 -341z m20 247 c-4 -156 -8 -171 -10 -40 -1 70 1 127 6 127 4 0 6
-39 4 -87z m226 80 c-15 -2 -42 -2 -60 0 -18 2 -6 4 27 4 33 0 48 -2 33 -4z
m234 -92 c38 -51 68 -98 68 -105 0 -6 -6 -2 -12 9 -6 11 -38 56 -70 100 l-59
80 -67 6 -67 6 70 -1 69 -1 68 -94z m-204 62 c-57 -2 -98 -8 -98 -14 0 -5 6
-9 13 -8 6 1 53 1 102 0 l91 -1 52 -75 c52 -74 52 -75 52 -150 0 -48 4 -74 10
-70 6 3 10 2 10 -4 0 -5 -4 -13 -10 -16 -5 -3 -10 -1 -10 4 0 6 -5 11 -11 11
-6 0 -9 -6 -6 -13 4 -10 -7 -11 -47 -6 -28 4 -61 10 -73 14 -15 5 -23 3 -23
-5 0 -14 -158 -11 -167 4 -3 5 -2 7 3 3 5 -3 9 60 9 149 0 85 -4 154 -9 154
-5 0 -3 7 4 15 10 12 33 15 109 13 l96 -2 -97 -3z m137 -25 c8 -13 33 -48 55
-78 22 -30 40 -59 40 -64 0 -5 -19 17 -42 50 -22 32 -52 71 -66 87 -14 15 -21
27 -14 27 6 0 18 -10 27 -22z m-258 -220 c-1 -40 -3 -8 -3 72 0 80 2 112 3 73
2 -40 2 -106 0 -145z m360 -20 c-2 -18 -4 -6 -4 27 0 33 2 48 4 33 2 -15 2
-42 0 -60z m-150 -84 c-3 -3 -12 -4 -19 -1 -8 3 -5 6 6 6 11 1 17 -2 13 -5z
m-54 -71 c-13 -2 -33 -2 -45 0 -13 2 -3 4 22 4 25 0 35 -2 23 -4z m115 -43
c40 -29 92 -103 92 -131 0 -8 -9 4 -19 26 -18 40 -77 102 -116 123 -11 6 -15
12 -9 12 6 0 29 -13 52 -30z m-273 -17 c-22 -20 -48 -48 -57 -62 -10 -14 -18
-20 -18 -13 0 14 92 112 106 112 5 0 -9 -17 -31 -37z"/>
<path d="M4966 6678 c-9 -12 -16 -28 -16 -35 0 -20 30 -43 59 -43 34 0 51 17
51 50 0 14 -5 31 -12 38 -20 20 -65 14 -82 -10z"/>
<path d="M4946 6564 c-16 -16 -21 -59 -10 -88 5 -12 21 -16 70 -16 59 0 64 2
64 22 0 22 0 22 28 -3 22 -20 34 -24 65 -19 44 6 50 23 10 28 -16 2 -48 23
-75 48 -41 38 -53 44 -92 44 -27 0 -51 -6 -60 -16z"/>
<path d="M2937 6752 c-36 -39 -7 -102 45 -102 25 0 58 36 58 63 0 50 -70 76
-103 39z"/>
<path d="M2846 6558 c-58 -156 -61 -169 -47 -178 8 -4 21 -6 29 -2 13 4 12 7
-4 13 -18 7 -18 8 3 14 15 5 28 25 43 66 13 33 27 62 31 65 5 3 9 -24 9 -60
l0 -66 70 0 70 0 0 67 c0 75 8 74 36 -6 13 -38 26 -56 44 -63 23 -9 23 -11 6
-17 -17 -7 -17 -8 -3 -14 8 -3 21 1 27 9 10 11 3 37 -32 126 l-44 113 -105 3
-106 3 -27 -73z"/>
<path d="M2164 6495 c0 -66 1 -92 3 -57 2 34 2 88 0 120 -2 31 -3 3 -3 -63z"/>
<path d="M2415 6560 c-4 -6 -4 -14 -1 -17 3 -4 6 -1 6 5 0 18 68 15 73 -3 4
-11 4 -10 3 2 -1 13 -11 19 -38 21 -20 2 -39 -2 -43 -8z"/>
<path d="M2310 6520 c0 -4 -2 -14 -5 -22 -4 -10 25 -13 150 -13 152 0 165 3
147 32 -9 14 -292 17 -292 3z m280 -10 c0 -6 -49 -9 -132 -8 l-133 2 130 6
c72 3 131 7 133 8 1 1 2 -2 2 -8z"/>
<path d="M1390 6275 l0 -245 145 0 145 0 0 245 0 245 -145 0 -145 0 0 -245z"/>
<path d="M2309 6453 c-2 -11 -2 -7 5 -108 11 -161 19 -260 22 -275 1 -8 3 -23
3 -32 1 -16 12 -18 79 -18 l79 0 0 30 c0 34 37 80 63 80 14 0 18 14 24 78 8
92 24 180 38 206 8 15 7 18 -5 13 -11 -4 -13 0 -10 14 5 18 -2 19 -146 19 -83
0 -152 -3 -152 -7z m191 -32 c21 -16 22 -21 11 -35 -12 -14 -11 -19 3 -35 13
-14 14 -24 7 -43 -10 -27 -72 -69 -99 -67 -10 1 -8 4 7 8 36 10 37 28 1 23
-16 -2 -30 -9 -30 -14 0 -14 -19 1 -30 25 -11 21 -11 21 4 3 9 -11 19 -17 22
-13 4 4 2 12 -3 19 -12 16 -23 79 -12 72 4 -2 19 7 33 21 27 27 55 32 74 13 6
-6 15 -9 19 -5 9 9 -27 36 -49 37 -9 0 -30 -12 -47 -26 -21 -17 -29 -20 -25
-10 7 18 51 45 74 45 8 0 26 -8 40 -18z m97 -43 c-3 -8 -6 -5 -6 6 -1 11 2 17
5 13 3 -3 4 -12 1 -19z m-52 -25 l18 -28 -21 19 c-12 11 -22 23 -22 28 0 14 7
9 25 -19z m-188 -35 c-3 -7 -5 -2 -5 12 0 14 2 19 5 13 2 -7 2 -19 0 -25z
m224 9 c-10 -9 -11 -8 -5 6 3 10 9 15 12 12 3 -3 0 -11 -7 -18z m-40 -35 c-14
-27 -40 -52 -53 -52 -6 0 1 9 15 20 14 11 29 30 32 41 4 11 9 18 12 16 2 -3 0
-14 -6 -25z m36 -19 c-3 -10 -5 -4 -5 12 0 17 2 24 5 18 2 -7 2 -21 0 -30z
m-10 -85 c-2 -13 -4 -5 -4 17 -1 22 1 32 4 23 2 -10 2 -28 0 -40z m-59 -77
c-13 -15 -25 -27 -27 -25 -4 4 39 54 47 54 2 0 -7 -13 -20 -29z m-28 -56 c0
-12 -13 -15 -62 -13 l-63 2 58 3 c31 2 57 8 57 13 0 6 2 10 5 10 3 0 5 -7 5
-15z"/>
<path d="M2441 6357 c-6 -6 -11 -16 -11 -23 0 -7 -3 -14 -7 -17 -5 -2 -3 -3 3
-1 6 1 17 -3 23 -9 8 -8 11 -8 11 2 0 8 6 11 16 7 13 -5 14 -4 6 7 -7 8 -10
16 -8 18 2 2 -2 9 -9 16 -9 8 -15 9 -24 0z m16 -29 c-3 -8 -6 -5 -6 6 -1 11 2
17 5 13 3 -3 4 -12 1 -19z"/>
<path d="M2653 6433 c9 -2 23 -2 30 0 6 3 -1 5 -18 5 -16 0 -22 -2 -12 -5z"/>
<path d="M2965 6330 c-3 -5 3 -10 15 -10 12 0 18 5 15 10 -3 6 -10 10 -15 10
-5 0 -12 -4 -15 -10z"/>
<path d="M3636 6296 c-86 -32 -131 -117 -107 -205 21 -79 80 -123 163 -123 61
0 118 37 147 94 l20 40 14 -34 c31 -73 120 -119 193 -99 143 38 173 236 48
309 -31 18 -50 22 -97 19 -69 -4 -104 -26 -132 -85 -11 -23 -23 -41 -26 -42
-3 0 -13 18 -21 39 -29 73 -126 114 -202 87z m109 -101 c37 -36 34 -86 -6
-119 -35 -30 -49 -32 -88 -11 -33 16 -41 33 -41 80 0 67 87 99 135 50z m338 0
c39 -37 37 -85 -4 -119 -48 -41 -95 -31 -124 24 -21 41 -19 58 14 91 37 37 77
38 114 4z"/>
<path d="M3661 6153 c-13 -26 1 -45 30 -41 18 2 24 9 24 28 0 32 -39 41 -54
13z"/>
<path d="M4007 6163 c-13 -13 -7 -51 9 -57 20 -8 44 11 44 34 0 23 -37 39 -53
23z"/>
<path d="M4965 6296 c-17 -7 -43 -28 -58 -45 -73 -87 -48 -209 54 -261 69 -36
141 -19 197 44 115 131 -33 332 -193 262z m121 -100 c41 -41 43 -64 8 -105
-20 -24 -34 -31 -60 -31 -79 0 -114 93 -53 144 41 35 64 33 105 -8z"/>
<path d="M5012 6168 c-30 -30 1 -73 36 -51 23 14 25 29 7 47 -20 19 -27 20
-43 4z"/>
<path d="M2942 6233 l-33 -4 3 -117 3 -117 25 0 25 0 5 123 c3 67 5 121 5 120
0 0 -15 -3 -33 -5z"/>
<path d="M2994 6217 c-2 -7 -3 -60 -2 -118 3 -104 3 -104 28 -104 l25 0 3 118
3 117 -26 0 c-14 0 -28 -6 -31 -13z"/>
<path d="M3403 6213 c-12 -30 2 -48 41 -51 43 -4 51 1 59 38 6 24 4 25 -45 25
-30 0 -52 -5 -55 -12z"/>
<path d="M4216 6193 c4 -16 8 -30 10 -31 1 -2 105 -5 231 -5 l228 -2 0 30 0
30 -238 3 -237 2 6 -27z"/>
<path d="M2532 6088 c-30 -30 -5 -88 38 -88 40 0 62 32 48 71 -8 24 -16 29
-42 29 -18 0 -37 -5 -44 -12z m66 -34 c4 -27 -26 -40 -46 -20 -21 20 -8 48 20
44 14 -2 24 -11 26 -24z"/>
<path d="M2705 5235 c-27 -7 -157 -39 -288 -70 -130 -31 -235 -61 -231 -66 3
-5 -2 -12 -10 -15 -14 -5 -14 -8 -1 -21 20 -19 20 -39 0 -23 -8 7 -15 8 -15 2
0 -5 7 -15 15 -22 23 -19 18 -34 -24 -68 l-40 -32 -21 28 -22 27 16 -27 c9
-15 16 -29 16 -30 0 -2 -21 -1 -47 1 -38 3 -55 10 -80 37 -18 18 -33 29 -33
25 0 -5 7 -14 15 -21 28 -23 17 -33 -32 -25 -27 4 -50 9 -52 11 -2 2 7 13 20
24 22 20 23 20 2 11 -12 -6 -25 -16 -28 -21 -10 -17 -33 -11 -40 10 -3 11 -11
20 -18 20 -8 0 -8 -3 1 -12 20 -20 14 -28 -23 -28 -19 0 -35 5 -35 10 0 6 -5
10 -12 10 -6 0 -21 8 -32 18 -20 16 -20 16 -7 -1 18 -23 11 -29 -28 -21 -27 6
-30 9 -19 23 10 13 10 14 -2 4 -8 -7 -19 -13 -25 -13 -11 0 -61 44 -84 73 -12
15 -10 17 19 17 26 0 31 -3 26 -17 -6 -15 -5 -15 13 1 20 18 21 18 47 -13 14
-17 31 -31 37 -31 7 0 0 10 -15 21 -39 29 -35 39 14 39 l41 0 -19 -22 -19 -23
25 21 c18 16 40 22 83 23 36 1 57 -2 57 -9 0 -6 5 -8 11 -5 12 8 48 -22 60
-50 6 -15 8 -16 8 -4 1 9 -8 24 -19 34 -30 27 -25 35 25 35 48 0 58 -12 24
-30 -11 -7 -18 -14 -15 -18 3 -3 18 5 31 18 l26 24 24 -29 c30 -37 30 -42 3
-66 -13 -10 -18 -18 -13 -18 13 0 55 35 55 46 1 4 19 22 40 38 21 17 39 33 40
38 0 4 -145 7 -323 7 l-323 0 -1 -50 c-1 -56 10 -72 27 -40 13 24 33 26 50 5
10 -12 10 -15 -1 -15 -10 0 -10 -3 -1 -12 8 -8 12 -68 12 -203 l0 -191 -60
-59 c-71 -70 -74 -88 -25 -152 19 -25 35 -40 35 -33 0 7 -13 28 -30 47 -16 18
-30 41 -30 51 0 17 88 117 96 109 2 -2 -3 -20 -11 -40 -15 -38 -18 -94 -6
-136 6 -23 22 -28 69 -22 4 1 8 18 9 39 l1 37 -9 -32 c-7 -23 -16 -33 -30 -33
-39 0 -51 85 -20 154 19 44 25 41 47 -28 7 -23 13 -33 13 -23 1 10 -6 33 -13
52 -8 19 -11 35 -7 35 9 0 101 -96 101 -105 0 -13 -29 -62 -44 -74 -21 -18
-20 -37 2 -46 13 -5 14 -4 5 6 -9 9 -5 21 18 55 39 53 35 67 -37 140 l-54 56
-3 194 c-2 188 -1 194 18 194 44 -1 542 -67 553 -74 18 -11 17 -1075 0 -1080
-7 -2 -38 -11 -68 -20 -30 -8 -80 -23 -110 -32 -30 -8 -62 -18 -70 -21 -8 -4
-44 -14 -79 -24 -74 -20 -82 -27 -75 -57 8 -30 30 -29 165 12 165 49 225 66
239 66 9 0 12 -34 9 -137 l-4 -138 838 1 c460 0 1275 1 1810 2 l972 2 -3 79
-3 80 -47 3 c-26 2 -62 -3 -80 -10 -25 -10 -42 -10 -73 -2 -24 7 -154 12 -317
13 l-277 1 275 6 c151 3 270 8 264 12 -6 4 -129 7 -273 7 -214 0 -263 -3 -267
-14 -8 -20 -69 -38 -103 -30 -16 3 -37 15 -47 26 -21 23 -82 26 -90 4 -8 -20
-68 -38 -103 -30 -16 3 -36 14 -45 24 -15 16 -45 18 -384 19 l-367 1 -3 111
c-1 61 1 110 6 110 10 0 83 -29 312 -125 74 -31 149 -61 165 -67 17 -6 34 -14
39 -19 15 -13 66 30 66 55 0 21 -27 56 -44 56 -4 0 -39 15 -79 33 -40 19 -100
44 -134 56 -35 13 -63 28 -63 33 0 6 9 8 19 5 12 -3 22 1 25 10 9 21 8 23 -12
23 -11 0 -24 12 -31 26 -11 25 -12 26 -37 9 -19 -12 -29 -14 -39 -5 -10 8 -15
8 -20 0 -4 -6 -5 -12 -4 -13 2 -1 13 -7 24 -13 16 -9 23 -7 37 10 18 21 18 21
9 -5 -5 -15 -7 -30 -4 -33 13 -12 -14 -5 -33 9 -10 8 -26 15 -34 15 -8 0 -39
11 -68 25 -29 13 -53 24 -55 23 -1 -1 -12 4 -24 11 -18 9 -23 21 -24 54 l-1
42 -10 -32 c-6 -18 -17 -33 -25 -33 -21 0 -86 35 -107 58 -18 21 -18 21 20 37
36 15 43 15 82 1 l42 -15 0 449 c0 422 -1 450 -17 450 -15 0 -524 120 -575
136 -16 5 -18 -2 -18 -45 l0 -51 -225 0 -225 0 0 105 c0 120 4 116 -95 90z
m-130 -161 c8 -4 23 -20 31 -36 12 -24 18 -27 30 -17 19 15 18 10 -6 -45 l-21
-46 -52 0 c-45 1 -50 2 -35 14 16 12 15 17 -22 70 -22 31 -40 59 -40 61 0 7
96 6 115 -1z m-456 -11 c0 -5 -14 -19 -31 -32 l-31 -25 -18 23 c-28 35 -24 41
31 41 28 0 50 -3 49 -7z m359 -35 c15 -25 15 -29 -2 -60 -39 -73 -39 -73 -85
-42 -46 30 -48 34 -24 72 44 70 80 80 111 30z m-939 8 c9 -10 8 -16 -4 -26
-13 -11 -15 -8 -15 14 0 30 3 32 19 12z m1483 -23 l-193 -3 2 -67 c2 -44 -2
-68 -9 -71 -9 -3 -12 19 -12 72 l0 76 203 -2 202 -3 -193 -2z m218 -63 c0 -70
-3 -76 -39 -70 -12 1 -12 -1 -3 -12 8 -11 7 -24 -4 -58 -21 -60 -20 -60 -53
-47 -24 9 -28 14 -20 29 7 14 6 18 -6 18 -16 0 -18 4 -9 37 3 12 13 24 21 27
13 5 14 0 9 -26 -3 -17 -3 -29 0 -25 4 3 16 2 28 -4 18 -9 19 -9 4 3 -9 8 -15
25 -15 39 2 21 7 24 34 23 l33 -1 0 69 c0 39 4 68 10 68 6 0 10 -30 10 -70z
m-1055 -17 c0 -24 -4 -28 -25 -25 -34 4 -36 9 -9 31 32 27 35 26 34 -6z m507
-45 c27 -50 27 -53 11 -77 -10 -14 -16 -30 -15 -35 2 -4 -9 -28 -23 -52 -24
-40 -29 -44 -65 -44 -31 0 -40 -4 -40 -17 0 -15 -4 -13 -20 7 -43 56 -45 65
-15 105 19 24 31 32 36 24 4 -7 21 -13 37 -13 l31 -1 -22 35 c-11 19 -25 43
-31 52 -6 9 -8 19 -6 21 20 15 77 47 85 47 6 0 22 -23 37 -52z m-287 -5 c11
-21 21 -42 23 -47 3 -4 -5 -5 -16 -2 -17 6 -26 -3 -52 -49 -17 -30 -33 -55
-35 -55 -2 0 -15 21 -30 48 -26 46 -26 48 -9 79 14 27 15 35 4 48 -11 13 -6
15 42 15 53 0 55 -1 73 -37z m485 -6 c0 -6 3 -7 6 -4 4 3 14 2 23 -3 10 -5 33
-5 52 -1 l35 8 -4 -34 c-2 -18 0 -33 6 -33 6 0 8 9 5 21 -7 26 11 39 55 39 22
0 32 -5 32 -15 0 -8 -4 -15 -10 -15 -16 0 -12 -27 5 -34 23 -9 18 -23 -16 -40
-36 -18 -62 -11 -54 15 6 17 4 17 -24 3 -39 -20 -173 -27 -183 -11 -4 7 -8 29
-8 50 0 30 4 37 19 37 10 0 21 9 24 20 5 21 37 18 37 -3z m350 -57 c0 -45 -2
-50 -22 -49 -22 0 -22 1 -3 9 17 7 17 9 3 9 -19 1 -24 26 -8 36 6 3 10 15 10
26 0 10 5 19 10 19 6 0 10 -22 10 -50z m-753 -88 l2 -53 -66 3 c-81 4 -96 19
-70 73 17 36 17 36 75 33 l57 -3 2 -53z m752 -122 l-2 -120 -29 0 -30 0 22 35
c12 19 17 35 11 35 -7 0 -16 -10 -21 -22 -5 -13 -16 -32 -25 -43 -13 -17 -17
-17 -25 -6 -7 12 -11 13 -24 1 -18 -14 -18 -14 -34 15 -9 17 -11 17 -12 3 0
-14 -9 -16 -51 -14 -28 1 -53 -2 -55 -6 -9 -14 -24 -9 -24 8 0 10 6 14 15 10
8 -3 19 2 24 11 7 13 12 14 23 6 14 -12 88 11 88 28 0 5 -12 3 -27 -4 -16 -7
-36 -12 -46 -9 -21 4 -17 28 5 26 10 -1 14 5 11 17 -6 23 0 24 32 3 14 -9 25
-12 25 -7 0 4 -12 16 -27 26 -30 20 -29 19 35 -8 46 -20 51 -29 25 -44 -17
-10 -17 -10 1 -11 12 0 16 -5 12 -15 -3 -9 0 -15 10 -15 12 0 15 6 10 25 -5
18 -2 25 7 25 8 0 22 10 33 22 18 20 18 21 1 15 -11 -4 -16 -3 -12 4 4 5 14 7
23 5 15 -5 17 2 14 54 l-4 60 -194 0 -194 0 0 -95 c0 -57 -4 -95 -10 -95 -6 0
-10 40 -10 100 l0 100 215 0 215 0 -1 -120z m-256 -17 c-7 -2 -19 -2 -25 0 -7
3 -2 5 12 5 14 0 19 -2 13 -5z m17 -19 c0 -9 -33 -54 -39 -54 -6 0 -41 53 -41
62 0 2 18 2 40 0 22 -2 40 -6 40 -8z m-116 -32 c-5 -13 -4 -14 4 -3 7 10 14
11 31 2 28 -15 27 -29 -4 -37 -15 -4 -30 -1 -40 9 -8 8 -20 17 -27 20 -9 3 -7
9 7 20 23 18 36 13 29 -11z m679 -3 c121 -33 188 -200 127 -318 -29 -57 -33
-49 -10 19 24 68 24 96 4 157 -19 56 -56 100 -101 119 -47 20 -150 17 -199 -5
-89 -41 -128 -160 -89 -272 19 -53 38 -75 90 -102 47 -25 152 -30 177 -9 13
10 17 10 20 0 3 -8 16 -3 39 15 27 20 38 24 47 15 7 -7 12 -18 12 -25 0 -16
-66 -59 -104 -69 -29 -7 -29 -7 -13 17 21 29 22 46 2 29 -10 -8 -39 -11 -87
-8 -60 3 -81 9 -116 33 -118 78 -134 250 -33 349 61 60 146 80 234 55z m-695
-31 c18 -18 14 -28 -11 -28 -23 0 -47 17 -47 32 0 12 45 9 58 -4z m371 -174
c-1 -99 -5 -127 -16 -131 -8 -3 -19 -1 -25 5 -7 7 -16 7 -29 -1 -14 -9 -21 -9
-31 1 -9 9 -16 8 -29 -4 -20 -18 -37 -12 -49 20 l-9 21 0 -22 c-1 -29 -41 -33
-41 -4 0 23 -26 35 -48 21 -14 -9 -13 -10 5 -5 24 7 41 -11 25 -27 -8 -8 -15
-8 -26 1 -8 7 -17 8 -19 4 -3 -5 -34 -9 -69 -8 l-63 0 -3 128 -3 127 216 0
215 0 -1 -126z m297 61 c35 -24 48 -68 30 -102 -18 -37 -34 -50 -68 -58 -23
-6 -34 -1 -63 28 -44 44 -46 78 -6 118 33 32 74 38 107 14z m-296 -321 c0 -67
-3 -95 -11 -92 -8 3 -11 33 -10 91 l2 87 -195 0 -194 0 -4 -75 c-3 -80 -2 -82
50 -69 15 4 21 12 18 21 -7 16 42 -9 74 -39 11 -10 21 -14 24 -10 3 5 -4 15
-16 23 -11 8 -30 22 -42 32 -21 18 -21 18 4 5 14 -7 28 -11 33 -10 4 1 7 -2 7
-7 0 -5 16 -12 36 -15 19 -4 41 -9 48 -12 7 -3 17 6 23 19 8 18 19 24 42 24
18 0 27 -3 22 -7 -15 -9 -2 -50 14 -44 19 8 75 -36 75 -58 0 -17 -8 -18 -65
-16 -66 2 -79 9 -48 26 14 9 15 14 3 41 l-13 32 -18 -31 c-24 -39 -24 -49 -1
-19 11 12 21 18 25 12 3 -5 -7 -25 -23 -44 -16 -19 -29 -28 -30 -20 0 8 -6 11
-17 7 -34 -13 -231 -15 -236 -3 -2 7 -5 65 -6 130 l-2 117 216 0 215 0 0 -96z
m484 -40 c19 -19 20 -25 3 -48 -19 -26 -61 -18 -65 12 -7 44 32 67 62 36z
m-851 -1 c-7 -2 -19 -2 -25 0 -7 3 -2 5 12 5 14 0 19 -2 13 -5z m164 1 c-3 -3
-12 -4 -19 -1 -8 3 -5 6 6 6 11 1 17 -2 13 -5z m574 -62 c116 -60 160 -203 99
-322 -93 -182 -367 -163 -435 31 -73 205 143 392 336 291z m231 3 c9 -21 9
-29 -4 -42 -24 -23 -68 -10 -68 20 0 49 52 64 72 22z m108 -40 c15 -19 4 -52
-21 -60 -38 -12 -65 35 -37 63 16 16 43 15 58 -3z m101 -35 c37 -20 17 -70
-28 -70 -27 0 -42 42 -23 65 15 18 25 19 51 5z m-811 -74 c0 -36 -4 -68 -10
-71 -6 -4 -10 17 -10 54 l0 61 -195 0 -195 0 0 -56 c0 -37 4 -53 11 -49 6 4 5
-2 -3 -14 -22 -36 -28 -24 -28 58 l0 80 215 1 215 1 0 -65z m930 19 c26 -32
-13 -81 -47 -59 -35 22 -23 74 17 74 10 0 23 -7 30 -15z m115 -54 c12 -40 -20
-70 -56 -51 -20 11 -23 27 -13 54 9 23 61 21 69 -3z m-2117 -8 c-21 -5 -24
-29 -5 -36 9 -4 9 -6 0 -6 -6 -1 -15 4 -18 9 -11 17 3 40 22 39 17 -1 17 -2 1
-6z m-58 -38 c0 -25 -15 -24 -16 1 -1 13 2 21 7 18 5 -3 9 -11 9 -19z m772 13
c-16 -16 -15 -33 1 -20 8 7 18 7 27 2 9 -5 19 -5 27 1 7 6 22 7 35 3 30 -10
68 -6 95 11 12 8 35 13 51 12 38 -3 30 -12 -10 -12 -17 0 -33 -4 -35 -10 -4
-12 53 -12 80 0 9 4 23 2 30 -3 7 -6 23 -9 35 -5 26 6 29 -12 5 -26 -17 -10
-17 -10 0 -11 12 0 17 -8 17 -30 0 -34 -1 -34 -52 -20 -28 8 -44 8 -60 -1 -15
-8 -23 -9 -26 -1 -2 6 -10 8 -18 5 -8 -3 -14 1 -14 10 0 8 -7 17 -15 21 -8 3
-15 1 -15 -3 0 -5 6 -11 13 -14 9 -4 9 -7 -1 -18 -10 -11 -21 -11 -58 -1 -34
9 -50 9 -67 1 -14 -8 -22 -8 -24 -2 -3 7 -18 8 -45 1 -46 -10 -57 -5 -41 21 6
10 8 24 3 31 -6 10 3 22 28 42 39 29 54 36 34 16z m323 -6 c-3 -3 -11 0 -18 7
-9 10 -8 11 6 5 10 -3 15 -9 12 -12z m1183 6 c30 -30 0 -75 -43 -64 -41 11
-29 76 15 76 9 0 21 -5 28 -12z m-2315 -38 c-7 -8 -22 24 -16 34 4 5 10 1 13
-10 4 -10 6 -21 3 -24z m-47 9 c3 -6 1 -16 -5 -22 -9 -9 -11 -8 -6 6 5 11 2
17 -7 17 -23 0 -29 -12 -16 -29 8 -11 6 -10 -8 2 -16 15 -17 19 -4 27 20 13
37 12 46 -1z m-82 -26 c7 -18 -11 -34 -34 -30 -17 3 -27 37 -10 37 6 0 9 -4 5
-9 -7 -12 12 -24 25 -16 8 5 7 11 -1 21 -7 8 -7 14 -1 14 5 0 13 -8 16 -17z
m-118 -25 c0 -7 4 -13 9 -13 6 0 9 6 9 13 -2 15 18 11 23 -5 3 -7 -6 -17 -17
-23 -26 -14 -46 0 -37 24 8 19 15 21 13 4z m2064 -128 c0 -47 -4 -80 -10 -80
-6 0 -10 33 -10 80 0 47 4 80 10 80 6 0 10 -33 10 -80z m373 73 c-68 -2 -178
-2 -245 0 -68 1 -13 3 122 3 135 0 190 -2 123 -3z m295 0 c-26 -2 -71 -2 -100
0 -29 2 -8 3 47 3 55 0 79 -1 53 -3z m270 0 c-10 -2 -28 -2 -40 0 -13 2 -5 4
17 4 22 1 32 -1 23 -4z m-1588 -78 c0 -43 -4 -75 -10 -75 -6 0 -10 30 -10 70
l0 70 -195 0 -195 0 0 -70 c0 -40 -4 -70 -10 -70 -6 0 -10 32 -10 75 l0 75
215 0 215 0 0 -75z"/>
<path d="M2871 4844 c0 -11 3 -14 6 -6 3 7 2 16 -1 19 -3 4 -6 -2 -5 -13z"/>
<path d="M2941 4824 c0 -11 3 -14 6 -6 3 7 2 16 -1 19 -3 4 -6 -2 -5 -13z"/>
<path d="M2880 4809 c0 -9 48 -24 55 -17 2 2 -9 9 -25 15 -17 6 -30 7 -30 2z"/>
<path d="M3050 4800 c0 -5 5 -10 10 -10 6 0 10 5 10 10 0 6 -4 10 -10 10 -5 0
-10 -4 -10 -10z"/>
<path d="M2831 4370 c1 -44 -1 -83 -5 -87 -10 -10 -7 -33 5 -33 5 0 8 4 5 8
-2 4 0 14 5 22 8 13 12 12 25 -5 15 -19 15 -19 9 7 -8 31 12 46 43 33 9 -4 25
-9 35 -10 11 -1 22 -7 26 -14 4 -7 14 -11 21 -9 7 2 19 -8 27 -22 12 -25 13
-25 13 -2 0 26 25 30 39 5 6 -10 11 -14 11 -9 0 5 8 2 18 -7 15 -14 19 -14 37
-1 19 15 19 15 -7 9 -21 -5 -29 -3 -34 10 -10 25 12 42 36 27 16 -10 18 -9 14
3 -4 9 1 18 12 22 10 4 19 2 21 -4 2 -6 12 -9 21 -6 14 3 16 15 14 73 l-4 70
-194 0 -195 0 2 -80z m59 -33 c-14 -8 -27 -12 -30 -10 -7 6 23 23 40 23 8 0 4
-6 -10 -13z m316 -15 c-4 -3 -14 2 -24 12 -16 18 -16 18 6 6 13 -6 21 -14 18
-18z m-250 0 c-10 -2 -22 0 -28 6 -6 6 0 7 19 4 21 -5 23 -7 9 -10z m204 14
c0 -2 -8 -10 -17 -17 -16 -13 -17 -12 -4 4 13 16 21 21 21 13z m-130 -36 c18
-12 2 -12 -25 0 -13 6 -15 9 -5 9 8 0 22 -4 30 -9z m45 0 c3 -6 -1 -7 -9 -4
-18 7 -21 14 -7 14 6 0 13 -4 16 -10z"/>
<path d="M3183 4279 c3 -9 0 -22 -6 -28 -6 -6 -9 -13 -6 -15 11 -11 27 31 17
45 -8 11 -9 11 -5 -2z"/>
<path d="M2909 4278 c0 -2 -2 -16 -4 -32 -4 -26 -3 -27 9 -10 8 10 12 24 9 31
-5 12 -12 17 -14 11z"/>
<path d="M2855 4240 c3 -5 11 -10 16 -10 6 0 7 5 4 10 -3 6 -11 10 -16 10 -6
0 -7 -4 -4 -10z"/>
<path d="M3446 4379 c-36 -28 -36 -80 0 -108 15 -12 35 -21 46 -21 27 0 68 45
68 75 0 30 -41 75 -68 75 -11 0 -31 -9 -46 -21z"/>
<path d="M2899 3999 c-10 -6 -7 -9 14 -9 29 0 35 5 14 13 -8 3 -20 1 -28 -4z"/>
<path d="M2839 3982 c-17 -3 -24 -52 -8 -52 5 0 9 4 9 9 0 5 12 14 28 19 15 6
20 11 10 11 -9 1 -18 5 -20 9 -1 4 -10 6 -19 4z"/>
<path d="M3010 3980 c0 -5 7 -10 15 -10 8 0 15 5 15 10 0 6 -7 10 -15 10 -8 0
-15 -4 -15 -10z"/>
<path d="M3160 3970 c0 -5 5 -10 11 -10 5 0 7 5 4 10 -3 6 -8 10 -11 10 -2 0
-4 -4 -4 -10z"/>
<path d="M2913 3950 c-11 -16 -10 -18 1 -14 15 6 30 34 18 34 -4 0 -13 -9 -19
-20z"/>
<path d="M2958 3943 c7 -3 16 -2 19 1 4 3 -2 6 -13 5 -11 0 -14 -3 -6 -6z"/>
<path d="M3010 3940 c-8 -5 -10 -10 -5 -10 6 0 17 5 25 10 8 5 11 10 5 10 -5
0 -17 -5 -25 -10z"/>
<path d="M3198 3943 c7 -3 16 -2 19 1 4 3 -2 6 -13 5 -11 0 -14 -3 -6 -6z"/>
<path d="M3674 4015 c-4 -10 -1 -21 7 -26 20 -12 34 -5 34 17 0 24 -33 31 -41
9z"/>
<path d="M3412 3970 c-154 -62 -179 -305 -41 -397 38 -25 51 -28 129 -28 77 0
91 3 127 27 54 35 93 113 93 183 0 140 -84 226 -221 224 -35 0 -74 -4 -87 -9z
m147 -149 c42 -39 42 -80 0 -121 -43 -40 -82 -40 -120 1 -39 42 -39 82 2 120
19 18 42 29 59 29 17 0 40 -11 59 -29z"/>
<path d="M3456 3818 c-35 -32 -39 -58 -16 -96 17 -28 25 -32 60 -32 35 0 43 4
60 32 11 19 17 42 14 53 -8 27 -51 65 -74 65 -10 0 -30 -10 -44 -22z"/>
<path d="M3784 3969 c-3 -6 0 -18 9 -26 18 -18 37 -9 37 18 0 21 -34 27 -46 8z"/>
<path d="M3903 3929 c-16 -16 -5 -39 19 -39 14 0 19 6 16 22 -4 25 -19 33 -35
17z"/>
<path d="M4003 3874 c-3 -8 -1 -20 5 -26 16 -16 42 -2 42 22 0 24 -38 28 -47
4z"/>
<path d="M4120 3835 c-11 -13 -11 -19 3 -33 20 -19 41 -5 35 24 -4 24 -22 28
-38 9z"/>
<path d="M4230 3775 c0 -27 21 -33 39 -12 8 10 7 17 -1 25 -20 20 -38 14 -38
-13z"/>
<path d="M2855 3710 c-3 -5 1 -10 10 -10 9 0 13 5 10 10 -3 6 -8 10 -10 10 -2
0 -7 -4 -10 -10z"/>
<path d="M2897 3699 c7 -7 15 -10 18 -7 3 3 -2 9 -12 12 -14 6 -15 5 -6 -5z"/>
<path d="M3018 3703 c7 -3 16 -2 19 1 4 3 -2 6 -13 5 -11 0 -14 -3 -6 -6z"/>
<path d="M3097 3699 c7 -7 15 -10 18 -7 3 3 -2 9 -12 12 -14 6 -15 5 -6 -5z"/>
<path d="M3150 3700 c0 -5 5 -10 11 -10 5 0 7 5 4 10 -3 6 -8 10 -11 10 -2 0
-4 -4 -4 -10z"/>
<path d="M2851 3681 c-8 -6 -9 -11 -3 -15 6 -3 14 -1 17 5 9 14 2 20 -14 10z"/>
<path d="M3190 3681 c0 -6 4 -13 10 -16 6 -3 7 1 4 9 -7 18 -14 21 -14 7z"/>
<path d="M4334 3739 c-3 -6 1 -18 10 -27 15 -15 17 -15 32 0 19 19 11 38 -16
38 -10 0 -22 -5 -26 -11z"/>
<path d="M1815 5030 c-3 -6 1 -7 9 -4 18 7 21 14 7 14 -6 0 -13 -4 -16 -10z"/>
<path d="M1780 5010 c0 -5 5 -10 10 -10 6 0 10 5 10 10 0 6 -4 10 -10 10 -5 0
-10 -4 -10 -10z"/>
<path d="M4930 4521 c-113 -43 -254 -97 -315 -120 -60 -24 -124 -48 -142 -53
-41 -14 -45 -26 -23 -74 10 -21 19 -34 19 -27 1 7 -4 24 -11 39 -11 23 -10 28
7 40 10 8 24 14 29 13 6 0 1 -5 -12 -12 -18 -8 -22 -16 -17 -31 15 -48 11 -58
-25 -62 -60 -7 -63 -17 -39 -135 11 -57 22 -111 23 -119 24 -146 41 -192 60
-161 3 4 26 11 52 15 26 3 61 15 79 26 18 11 50 22 71 24 22 2 109 29 196 58
l156 55 96 -94 c52 -51 92 -93 88 -94 -4 0 -42 0 -85 1 -77 1 -78 1 -75 -22 3
-23 3 -23 163 -23 144 0 160 2 163 18 3 14 -4 17 -44 17 -48 0 -49 1 -156 108
-60 60 -111 106 -114 103 -3 -3 -18 -6 -32 -6 -15 -1 -38 -4 -52 -8 -15 -4
-12 -1 8 8 18 9 54 17 80 18 44 3 226 61 246 78 10 9 -1 62 -12 55 -4 -2 -7 8
-8 22 -1 25 -41 146 -114 342 -15 41 -34 76 -41 77 -8 1 -106 -33 -219 -76z
m274 -75 c25 -71 46 -131 46 -135 -1 -15 -21 33 -53 124 -19 55 -40 114 -47
130 -6 17 -7 26 -2 20 6 -5 31 -68 56 -139z m-434 -6 c-8 -5 -19 -10 -25 -10
-5 0 -3 5 5 10 8 5 20 10 25 10 6 0 3 -5 -5 -10z m116 -5 c10 -8 14 -15 9 -15
-6 0 -16 5 -23 12 -13 13 -92 -6 -92 -22 0 -6 -6 -10 -13 -10 -20 0 -44 -30
-55 -70 -6 -19 -11 -27 -11 -17 -2 44 27 84 80 111 61 30 78 32 105 11z m-166
-15 c-8 -5 -19 -10 -25 -10 -5 0 -3 5 5 10 8 5 20 10 25 10 6 0 3 -5 -5 -10z
m199 -4 c15 10 21 11 14 3 -7 -7 -13 -24 -13 -38 0 -34 -8 -45 -47 -65 -39
-20 -41 -24 -9 -22 14 0 33 14 47 33 13 18 26 33 29 33 3 0 20 -14 38 -31 24
-23 31 -36 26 -51 -3 -12 -2 -18 3 -15 5 4 4 -15 -2 -40 -7 -27 -20 -52 -31
-58 -10 -5 -21 -11 -23 -12 -2 -2 1 -9 8 -17 9 -11 8 -15 -5 -20 -10 -4 -22
-2 -27 3 -7 7 -17 6 -30 0 -15 -9 -18 -8 -12 2 6 9 3 10 -11 5 -55 -21 -74
-19 -119 15 -33 26 -44 41 -45 62 0 33 -17 36 -23 5 -2 -13 -3 -9 -1 7 6 44 8
50 27 69 9 10 17 26 17 37 0 36 21 60 72 84 46 21 54 22 72 10 17 -13 23 -13
45 1z m-249 -16 c-8 -5 -19 -10 -25 -10 -5 0 -3 5 5 10 8 5 20 10 25 10 6 0 3
-5 -5 -10z m350 -83 c0 -3 -18 11 -40 30 -22 20 -40 39 -40 43 0 4 18 -10 40
-30 22 -20 40 -40 40 -43z m-400 63 c-8 -5 -19 -10 -25 -10 -5 0 -3 5 5 10 8
5 20 10 25 10 6 0 3 -5 -5 -10z m-80 -30 c-8 -5 -19 -10 -25 -10 -5 0 -3 5 5
10 8 5 20 10 25 10 6 0 3 -5 -5 -10z m740 -115 c0 -5 -5 -3 -10 5 -5 8 -10 20
-10 25 0 6 5 3 10 -5 5 -8 10 -19 10 -25z m-873 -92 c-3 -10 -5 -4 -5 12 0 17
2 24 5 18 2 -7 2 -21 0 -30z m334 -9 c9 -11 2 -9 -18 6 -18 13 -33 25 -33 27
0 8 38 -17 51 -33z m-324 -36 c-3 -8 -6 -5 -6 6 -1 11 2 17 5 13 3 -3 4 -12 1
-19z m420 1 c34 16 43 13 13 -4 -34 -19 -44 -19 -71 6 l-24 21 29 -17 c23 -14
33 -15 53 -6z m393 -18 c-8 -5 -26 -11 -40 -15 -21 -5 -20 -3 5 9 32 15 60 20
35 6z m-803 -33 c-3 -7 -5 -2 -5 12 0 14 2 19 5 13 2 -7 2 -19 0 -25z m703 -2
c0 -2 -7 -7 -16 -10 -8 -3 -12 -2 -9 4 6 10 25 14 25 6z m-693 -38 c-3 -8 -6
-5 -6 6 -1 11 2 17 5 13 3 -3 4 -12 1 -19z m38 -177 c-5 -5 -24 69 -30 119 -3
25 3 10 14 -35 10 -44 17 -82 16 -84z m445 139 c-8 -5 -19 -10 -25 -10 -5 0
-3 5 5 10 8 5 20 10 25 10 6 0 3 -5 -5 -10z m-70 -25 c-46 -18 -64 -17 -25 0
17 8 37 14 45 14 8 0 -1 -7 -20 -14z"/>
<path d="M4815 4320 c-5 -32 -3 -46 11 -61 10 -11 12 -19 6 -19 -7 0 -12 -5
-12 -11 0 -6 9 -8 23 -4 17 5 19 4 7 -4 -8 -6 -24 -8 -36 -5 -16 4 -23 0 -27
-16 -3 -12 -2 -20 1 -18 4 2 24 10 44 17 21 8 39 20 41 25 2 6 3 2 1 -9 -5
-30 18 -86 33 -81 7 3 15 1 18 -4 4 -6 12 -10 18 -10 7 0 -3 13 -22 29 -29 24
-34 34 -36 77 -1 27 -3 52 -3 55 -3 10 -52 5 -52 -5 0 -5 -3 -7 -6 -4 -3 4 1
20 10 36 13 25 13 32 2 41 -12 10 -15 4 -21 -29z"/>
<path d="M4890 4280 c0 -5 6 -10 13 -10 8 0 7 -4 -3 -10 -13 -8 -12 -10 3 -10
9 0 17 -4 17 -10 0 -5 7 -7 16 -3 13 5 12 9 -7 29 -24 25 -39 31 -39 14z"/>
<path d="M4710 4269 c-11 -8 -6 -9 20 -5 24 4 43 1 55 -9 30 -22 44 -17 16 5
-25 22 -67 26 -91 9z"/>
<path d="M1496 4337 c3 -10 9 -15 12 -12 3 3 0 11 -7 18 -10 9 -11 8 -5 -6z"/>
<path d="M1700 4339 c0 -5 5 -7 10 -4 6 3 10 8 10 11 0 2 -4 4 -10 4 -5 0 -10
-5 -10 -11z"/>
<path d="M1470 4310 c0 -5 5 -10 10 -10 6 0 10 5 10 10 0 6 -4 10 -10 10 -5 0
-10 -4 -10 -10z"/>
<path d="M1560 4312 c0 -5 -9 -12 -20 -15 -11 -3 -20 -11 -20 -18 0 -10 3 -10
12 -1 19 19 28 14 28 -15 0 -21 3 -24 9 -14 6 9 6 22 0 32 -6 12 -5 19 3 21 9
3 9 6 0 12 -7 4 -12 3 -12 -2z"/>
<path d="M1625 4310 c3 -5 8 -10 11 -10 2 0 4 5 4 10 0 6 -5 10 -11 10 -5 0
-7 -4 -4 -10z"/>
<path d="M1669 4280 c-31 -25 -18 -25 23 0 20 12 26 20 17 20 -9 0 -27 -9 -40
-20z"/>
<path d="M1620 4280 c-13 -8 -12 -10 3 -10 9 0 17 5 17 10 0 12 -1 12 -20 0z"/>
<path d="M1486 4270 c-18 -6 -18 -7 5 -13 l24 -7 -22 -19 c-13 -11 -23 -25
-23 -33 0 -10 3 -9 10 2 9 13 13 12 30 -9 11 -13 20 -19 20 -13 0 6 -7 18 -16
27 -12 11 -14 19 -6 27 12 12 35 1 27 -13 -4 -5 1 -9 9 -9 24 0 19 15 -9 30
-13 7 -25 18 -27 25 -2 8 -10 10 -22 5z"/>
<path d="M898 4225 c2 -14 8 -25 13 -25 5 0 6 7 2 16 -3 9 0 20 8 25 11 7 9 9
-7 9 -17 0 -20 -5 -16 -25z"/>
<path d="M1026 4234 c-8 -21 -8 -24 3 -24 5 0 11 9 14 20 6 24 -8 27 -17 4z"/>
<path d="M1087 4230 c3 -11 7 -20 9 -20 2 0 4 9 4 20 0 11 -4 20 -9 20 -5 0
-7 -9 -4 -20z"/>
<path d="M1642 4238 c-16 -16 -15 -39 1 -32 7 2 13 13 13 24 0 11 -1 20 -1 20
-1 0 -6 -5 -13 -12z"/>
<path d="M1595 4230 c-3 -6 1 -7 9 -4 18 7 21 14 7 14 -6 0 -13 -4 -16 -10z"/>
<path d="M973 4218 c4 -12 1 -18 -10 -18 -13 0 -13 -3 -2 -16 12 -14 14 -13
21 7 6 14 4 26 -3 33 -9 8 -10 7 -6 -6z"/>
<path d="M5431 4187 l2 -42 7 35 7 35 2 -30 c0 -17 -4 -36 -10 -42 -7 -7 -9
-29 -4 -60 3 -26 9 -108 13 -181 l7 -132 23 42 c20 39 75 88 97 88 4 0 -7 -10
-26 -23 -40 -27 -79 -82 -78 -111 0 -13 8 -3 23 30 15 33 36 58 58 72 40 25
103 31 135 14 27 -15 36 -15 27 0 -4 7 -3 8 5 4 6 -4 9 -11 6 -15 -2 -5 4 -16
15 -26 19 -17 28 -9 13 11 -5 5 2 -2 14 -16 21 -23 48 -80 38 -80 -3 0 -12 16
-20 37 -19 45 -28 40 -12 -7 7 -19 20 -36 29 -38 14 -2 16 14 17 153 1 101 -2
155 -9 155 -5 0 -10 -18 -10 -39 0 -25 -7 -47 -21 -62 l-20 -24 17 28 c12 20
15 42 12 83 -5 57 5 81 17 41 4 -13 8 -17 11 -10 3 7 -16 43 -43 80 l-50 68
-146 2 -147 2 1 -42z m327 -31 c18 -24 28 -47 23 -50 -10 -7 -83 89 -74 98 9
8 15 2 51 -48z m-63 24 c39 -32 72 -96 77 -147 7 -76 -8 -87 -119 -85 -54 1
-89 6 -94 13 -4 6 -12 8 -19 4 -8 -5 -11 -4 -6 3 3 5 7 59 8 119 l1 108 68 -1
c42 0 74 -6 84 -14z m-168 -152 c-2 -29 -3 -6 -3 52 0 58 1 81 3 53 2 -29 2
-77 0 -105z"/>
<path d="M5595 4136 c-20 -15 -17 -44 7 -59 12 -8 21 -7 32 2 36 30 -1 85 -39
57z"/>
<path d="M5577 4053 c-4 -3 -7 -24 -7 -45 l0 -38 45 0 c25 0 45 -4 45 -10 0
-5 8 -10 18 -10 16 1 16 1 0 14 -20 14 -24 36 -8 36 6 0 13 -7 16 -15 4 -9 19
-15 35 -15 19 0 29 5 29 15 0 9 -9 15 -23 15 -13 0 -36 14 -52 30 -28 29 -80
41 -98 23z"/>
<path d="M1557 4187 c-14 -22 -14 -24 3 -35 10 -6 20 -22 22 -34 l3 -23 14 24
c7 13 8 20 2 17 -5 -4 -15 2 -20 13 -17 30 -13 40 12 35 12 -2 15 -1 7 2 -8 4
-18 11 -21 16 -3 5 -13 -2 -22 -15z"/>
<path d="M1671 4201 c-10 -6 -10 -10 -1 -16 13 -8 24 -1 19 14 -3 6 -10 7 -18
2z"/>
<path d="M1042 4175 c-10 -22 -9 -25 13 -31 14 -3 25 -10 25 -15 0 -5 5 -9 10
-9 21 0 9 20 -16 26 -21 5 -24 11 -20 30 8 31 2 31 -12 -1z"/>
<path d="M917 4178 c-7 -22 12 -48 30 -41 14 5 13 8 -5 14 -14 5 -20 14 -16
24 3 8 4 15 1 15 -3 0 -7 -6 -10 -12z"/>
<path d="M1625 4169 c-11 -17 1 -21 15 -4 8 9 8 15 2 15 -6 0 -14 -5 -17 -11z"/>
<path d="M1711 4164 c0 -11 3 -14 6 -6 3 7 2 16 -1 19 -3 4 -6 -2 -5 -13z"/>
<path d="M1000 4155 c0 -8 4 -15 10 -15 5 0 7 7 4 15 -4 8 -8 15 -10 15 -2 0
-4 -7 -4 -15z"/>
<path d="M1490 4140 c0 -5 5 -10 11 -10 5 0 7 5 4 10 -3 6 -8 10 -11 10 -2 0
-4 -4 -4 -10z"/>
<path d="M1640 4140 c0 -5 7 -7 15 -4 8 4 15 8 15 10 0 2 -7 4 -15 4 -8 0 -15
-4 -15 -10z"/>
<path d="M1690 4143 c0 -5 10 -18 23 -29 l22 -19 -20 25 c-11 14 -21 27 -22
29 -2 2 -3 0 -3 -6z"/>
<path d="M869 4128 c-11 -8 -10 -9 3 -4 10 3 24 -1 32 -9 8 -8 19 -15 25 -15
6 0 11 -8 11 -17 0 -13 3 -14 12 -5 9 10 9 15 -2 25 -27 24 -66 36 -81 25z"/>
<path d="M972 4121 c2 -7 7 -12 11 -12 12 1 9 15 -3 20 -7 2 -11 -2 -8 -8z"/>
<path d="M1046 4121 c-4 -5 1 -14 10 -19 13 -7 14 -13 5 -30 -17 -32 -13 -40
14 -34 23 4 24 6 9 17 -10 6 -14 17 -10 23 4 7 1 21 -7 33 -9 12 -18 16 -21
10z"/>
<path d="M1620 4121 c0 -6 4 -13 10 -16 6 -3 7 1 4 9 -7 18 -14 21 -14 7z"/>
<path d="M1017 4101 c-4 -17 -3 -21 5 -13 5 5 8 16 6 23 -3 8 -7 3 -11 -10z"/>
<path d="M1538 4103 c7 -3 16 -2 19 1 4 3 -2 6 -13 5 -11 0 -14 -3 -6 -6z"/>
<path d="M3778 4103 c6 -2 18 -2 25 0 6 3 1 5 -13 5 -14 0 -19 -2 -12 -5z"/>
<path d="M850 4060 c0 -5 5 -10 10 -10 6 0 10 5 10 10 0 6 -4 10 -10 10 -5 0
-10 -4 -10 -10z"/>
<path d="M891 4053 c-10 -11 -10 -18 -2 -26 8 -8 11 -7 11 5 0 9 5 18 12 20 7
3 8 7 3 10 -6 3 -16 -1 -24 -9z"/>
<path d="M3943 4053 c16 -16 15 -18 -6 -42 l-22 -25 31 25 c29 22 30 25 16 42
-8 9 -20 17 -26 17 -6 0 -3 -8 7 -17z"/>
<path d="M950 4038 c0 -4 7 -8 15 -8 8 0 15 4 15 8 0 5 -7 9 -15 9 -8 0 -15
-4 -15 -9z"/>
<path d="M2047 4043 c-12 -11 -8 -30 13 -54 17 -21 19 -21 13 -4 -3 11 -10 25
-15 32 -6 7 -7 17 -3 23 7 11 2 14 -8 3z"/>
<path d="M3904 4028 l-19 -23 23 19 c21 18 27 26 19 26 -2 0 -12 -10 -23 -22z"/>
<path d="M1007 4020 c3 -11 7 -20 9 -20 2 0 4 9 4 20 0 11 -4 20 -9 20 -5 0
-7 -9 -4 -20z"/>
<path d="M4070 4026 c0 -10 42 -28 77 -32 43 -5 35 12 -10 21 -17 4 -40 9 -49
11 -10 3 -18 3 -18 0z"/>
<path d="M5434 3890 c0 -80 2 -112 3 -72 2 39 2 105 0 145 -1 39 -3 7 -3 -73z"/>
<path d="M422 3954 l-50 -67 -1 -100 c-1 -55 -4 -104 -8 -110 -4 -6 -1 -7 7
-2 9 5 11 4 6 -3 -4 -6 -8 -41 -9 -77 -2 -61 -1 -65 19 -65 17 0 23 8 28 33
10 56 89 117 149 117 12 0 35 -7 51 -15 16 -9 31 -13 33 -11 3 3 -10 12 -28
21 -66 35 -161 -1 -211 -79 -11 -17 -17 -23 -14 -12 19 58 103 116 167 116 37
0 103 -35 95 -49 -3 -5 0 -14 8 -20 11 -9 15 -9 18 1 3 8 7 6 11 -6 4 -11 3
-15 -4 -10 -7 4 -10 1 -7 -7 3 -8 11 -14 19 -14 7 0 15 -9 16 -20 l3 -20 -9
20 c-8 17 -10 15 -10 -12 -1 -30 2 -33 29 -33 l30 0 -2 58 -1 57 -7 -50 -7
-50 -1 47 c-1 26 3 50 8 53 6 4 10 78 10 191 l0 184 -104 0 c-74 0 -106 -4
-109 -12 -4 -10 -6 -10 -6 0 -1 14 -50 17 -52 2 -1 -5 -2 -14 -3 -19 0 -5 -5
-13 -10 -18 -5 -5 -6 -2 -1 6 6 10 4 12 -6 6 -12 -8 -12 -6 0 8 8 10 11 20 8
23 -3 3 -28 -24 -55 -62z m283 39 c-27 -3 -53 -10 -57 -16 -6 -9 -8 -9 -8 0 0
7 -19 14 -42 16 -24 2 2 3 57 3 55 0 78 -1 50 -3z m-169 -18 c5 13 84 7 102
-8 16 -13 15 -224 -1 -234 -6 -3 -7 -1 -3 6 6 8 1 10 -16 6 -40 -10 -197 -11
-190 -1 3 5 -1 7 -9 4 -12 -5 -13 5 -9 56 4 47 13 73 40 113 19 29 41 53 48
53 6 0 12 6 12 13 0 8 4 7 11 -3 6 -9 12 -11 15 -5z m-103 -60 c-32 -49 -53
-68 -53 -48 0 15 73 112 81 107 5 -3 -8 -29 -28 -59z"/>
<path d="M553 3923 c-19 -7 -16 -51 4 -62 25 -13 53 4 53 33 0 29 -25 42 -57
29z"/>
<path d="M515 3810 c-16 -16 -39 -30 -52 -30 -13 0 -23 -6 -23 -14 0 -17 52
-24 127 -18 l54 5 -3 41 c-3 39 -5 41 -38 44 -28 2 -41 -3 -65 -28z m15 -45
c0 -8 -7 -15 -15 -15 -16 0 -20 12 -8 23 11 12 23 8 23 -8z"/>
<path d="M850 4010 c0 -5 7 -10 16 -10 8 0 12 5 9 10 -3 6 -10 10 -16 10 -5 0
-9 -4 -9 -10z"/>
<path d="M938 4003 c6 -2 18 -2 25 0 6 3 1 5 -13 5 -14 0 -19 -2 -12 -5z"/>
<path d="M1926 3995 c7 -16 39 -20 48 -6 4 5 -3 7 -14 4 -11 -3 -20 0 -20 6 0
6 -4 11 -10 11 -5 0 -7 -7 -4 -15z"/>
<path d="M2006 4001 c-5 -7 -3 -18 3 -24 14 -14 20 -6 11 17 -5 15 -9 16 -14
7z"/>
<path d="M2090 3980 c0 -5 5 -10 11 -10 5 0 7 5 4 10 -3 6 -8 10 -11 10 -2 0
-4 -4 -4 -10z"/>
<path d="M895 3960 c3 -5 8 -10 11 -10 2 0 4 5 4 10 0 6 -5 10 -11 10 -5 0 -7
-4 -4 -10z"/>
<path d="M937 3953 c14 -38 53 -37 52 1 0 20 -1 20 -10 -2 -9 -24 -29 -22 -29
4 0 8 -4 14 -10 14 -5 0 -6 -8 -3 -17z"/>
<path d="M1055 3943 c0 -16 6 -37 13 -48 13 -19 13 -19 7 2 -4 15 -1 23 12 26
17 4 17 5 1 6 -11 1 -18 9 -18 21 0 11 -4 20 -8 20 -4 0 -7 -12 -7 -27z"/>
<path d="M1137 3963 c-4 -3 -7 -13 -7 -22 1 -13 3 -13 11 2 11 19 8 33 -4 20z"/>
<path d="M1175 3959 c-11 -17 0 -20 21 -4 17 13 17 14 2 15 -9 0 -20 -5 -23
-11z"/>
<path d="M1248 3963 c12 -2 30 -2 40 0 9 3 -1 5 -23 4 -22 0 -30 -2 -17 -4z"/>
<path d="M1328 3963 c12 -2 30 -2 40 0 9 3 -1 5 -23 4 -22 0 -30 -2 -17 -4z"/>
<path d="M1615 3946 c0 -18 3 -22 13 -14 9 8 9 14 1 24 -15 18 -14 18 -14 -10z"/>
<path d="M1570 3951 c0 -10 19 -25 25 -20 1 2 -3 10 -11 17 -8 7 -14 8 -14 3z"/>
<path d="M2006 3952 c-3 -6 -1 -14 5 -17 14 -9 20 -2 10 14 -6 8 -11 9 -15 3z"/>
<path d="M4321 3943 c-8 -9 -10 -18 -4 -24 6 -6 15 -4 23 6 17 21 0 38 -19 18z"/>
<path d="M1513 3932 c-9 -14 -12 -15 -27 -3 -12 10 -16 10 -16 1 0 -6 9 -14
20 -17 11 -3 20 -12 20 -19 0 -20 27 -18 34 2 5 14 4 15 -9 4 -13 -10 -15 -9
-15 8 0 11 5 22 12 24 7 3 8 7 2 11 -5 3 -15 -2 -21 -11z"/>
<path d="M1850 3938 c0 -11 12 -10 30 2 12 7 10 9 -8 7 -12 0 -22 -5 -22 -9z"/>
<path d="M1926 3925 c5 -22 3 -26 -12 -25 -11 1 -28 1 -39 0 -15 -1 -13 -4 9
-11 20 -5 34 -4 43 3 16 13 17 44 3 53 -7 4 -8 -3 -4 -20z"/>
<path d="M1967 3929 c3 -10 9 -16 14 -13 13 8 11 21 -5 27 -10 4 -12 0 -9 -14z"/>
<path d="M2100 3940 c0 -5 5 -10 11 -10 5 0 7 5 4 10 -3 6 -8 10 -11 10 -2 0
-4 -4 -4 -10z"/>
<path d="M1019 3938 c-6 -12 -5 -46 2 -43 4 3 7 14 6 25 -1 18 -5 25 -8 18z"/>
<path d="M1295 3929 c-4 -6 -5 -12 -2 -15 2 -3 7 2 10 11 7 17 1 20 -8 4z"/>
<path d="M1363 3925 c-23 -25 -13 -46 12 -27 12 9 19 42 8 42 -4 -1 -14 -7
-20 -15z"/>
<path d="M1661 3924 c0 -11 3 -14 6 -6 3 7 2 16 -1 19 -3 4 -6 -2 -5 -13z"/>
<path d="M2068 3933 c7 -3 16 -2 19 1 4 3 -2 6 -13 5 -11 0 -14 -3 -6 -6z"/>
<path d="M860 3913 c8 -3 21 -10 28 -16 9 -7 11 -6 6 7 -3 9 -16 16 -28 15
-14 0 -16 -2 -6 -6z"/>
<path d="M1143 3905 c-15 -17 -17 -75 -3 -75 6 0 10 16 10 35 0 19 5 35 10 35
6 0 10 5 10 10 0 14 -13 12 -27 -5z"/>
<path d="M1420 3909 c0 -5 5 -7 10 -4 6 3 10 8 10 11 0 2 -4 4 -10 4 -5 0 -10
-5 -10 -11z"/>
<path d="M918 3905 c-4 -4 -4 -13 -2 -20 6 -16 -16 -32 -25 -18 -3 6 -15 7
-26 2 -19 -7 -19 -8 -1 -8 15 -1 16 -4 7 -15 -8 -10 -9 -16 -1 -21 6 -3 8 -10
5 -15 -3 -5 -1 -12 5 -15 6 -4 8 -15 5 -25 -3 -10 -2 -21 3 -24 14 -8 22 30 9
43 -7 7 -6 15 3 26 11 13 10 14 -4 9 -11 -4 -16 -1 -16 10 0 16 3 17 52 20 37
2 53 19 34 35 -11 9 -14 8 -12 -5 2 -29 -22 -27 -26 1 -2 15 -6 24 -10 20z"/>
<path d="M1190 3906 c0 -2 7 -6 15 -10 8 -3 15 -1 15 4 0 6 -7 10 -15 10 -8 0
-15 -2 -15 -4z"/>
<path d="M1998 3903 c7 -3 16 -2 19 1 4 3 -2 6 -13 5 -11 0 -14 -3 -6 -6z"/>
<path d="M2054 3897 c-13 -15 1 -63 21 -71 11 -4 11 0 -1 22 -7 15 -11 35 -8
45 6 20 3 21 -12 4z"/>
<path d="M1240 3880 c0 -5 5 -10 11 -10 5 0 7 5 4 10 -3 6 -8 10 -11 10 -2 0
-4 -4 -4 -10z"/>
<path d="M1455 3880 c-4 -6 -14 -9 -22 -5 -13 4 -14 3 -3 -9 11 -14 14 -14 27
0 9 8 13 17 10 20 -3 3 -8 0 -12 -6z"/>
<path d="M1580 3876 c0 -9 5 -16 10 -16 6 0 10 4 10 9 0 6 -4 13 -10 16 -5 3
-10 -1 -10 -9z"/>
<path d="M1965 3880 c-4 -6 -3 -16 3 -22 13 -13 23 4 13 21 -7 10 -10 10 -16
1z"/>
<path d="M1000 3870 c0 -5 5 -10 11 -10 5 0 7 5 4 10 -3 6 -8 10 -11 10 -2 0
-4 -4 -4 -10z"/>
<path d="M1170 3860 c0 -12 7 -20 16 -20 13 0 14 3 5 14 -9 11 -9 15 1 19 8 4
7 6 -4 6 -12 1 -18 -6 -18 -19z"/>
<path d="M1226 3856 c10 -8 21 -12 24 -10 5 6 -21 24 -34 24 -6 0 -1 -6 10
-14z"/>
<path d="M1273 3857 c4 -10 7 -22 7 -27 0 -21 29 -16 39 7 10 22 10 25 -5 19
-9 -3 -24 -1 -32 6 -13 11 -15 10 -9 -5z"/>
<path d="M2125 3860 c-3 -5 -1 -10 4 -10 6 0 11 5 11 10 0 6 -2 10 -4 10 -3 0
-8 -4 -11 -10z"/>
<path d="M4612 3839 c-47 -50 -55 -125 -17 -163 8 -8 15 -19 15 -24 0 -13 47
-32 78 -32 40 1 72 22 98 66 23 38 23 38 33 13 35 -91 143 -107 195 -29 39 59
36 112 -8 156 -45 45 -108 48 -155 8 -17 -14 -31 -32 -31 -39 0 -29 -20 -24
-35 8 -17 37 -45 53 -104 63 -34 5 -41 3 -69 -27z m112 -50 c30 -23 33 -45 10
-77 -10 -15 -25 -22 -49 -22 -28 0 -37 6 -50 30 -17 33 -9 61 23 79 25 15 36
13 66 -10z m241 -4 c29 -28 31 -42 9 -73 -17 -25 -74 -31 -92 -9 -24 30 -23
56 2 82 31 31 50 32 81 0z"/>
<path d="M4667 3756 c-9 -22 18 -40 33 -22 6 9 9 20 5 26 -9 15 -32 12 -38 -4z"/>
<path d="M4904 3759 c-3 -6 0 -17 8 -25 13 -13 16 -13 27 0 7 8 10 20 6 26 -8
13 -32 13 -41 -1z"/>
<path d="M5583 3856 c-87 -39 -80 -190 9 -227 67 -27 145 28 154 109 11 87
-82 154 -163 118z m85 -62 c44 -31 17 -104 -39 -104 -29 0 -59 31 -59 59 0 20
40 61 60 61 8 0 26 -7 38 -16z"/>
<path d="M5615 3760 c-8 -14 3 -30 21 -30 8 0 14 9 14 20 0 21 -24 28 -35 10z"/>
<path d="M1040 3856 c0 -2 9 -6 20 -9 11 -3 18 -1 14 4 -5 9 -34 13 -34 5z"/>
<path d="M1561 3844 c0 -11 3 -14 6 -6 3 7 2 16 -1 19 -3 4 -6 -2 -5 -13z"/>
<path d="M990 3841 c0 -6 4 -13 10 -16 6 -3 7 1 4 9 -7 18 -14 21 -14 7z"/>
<path d="M1356 3841 c-19 -7 -19 -8 1 -13 14 -4 24 0 27 8 6 15 1 16 -28 5z"/>
<path d="M1910 3840 c0 -5 5 -10 11 -10 5 0 7 5 4 10 -3 6 -8 10 -11 10 -2 0
-4 -4 -4 -10z"/>
<path d="M942 3827 c-9 -11 -10 -17 -2 -22 15 -9 23 -1 18 21 -3 15 -4 16 -16
1z"/>
<path d="M2141 3824 c0 -11 3 -14 6 -6 3 7 2 16 -1 19 -3 4 -6 -2 -5 -13z"/>
<path d="M1033 3823 c-7 -2 -13 -16 -13 -29 0 -15 4 -23 10 -19 6 4 8 11 4 16
-3 5 0 16 6 24 13 16 12 16 -7 8z"/>
<path d="M1581 3814 c0 -11 3 -14 6 -6 3 7 2 16 -1 19 -3 4 -6 -2 -5 -13z"/>
<path d="M1964 3810 c0 -13 4 -16 10 -10 7 7 7 13 0 20 -6 6 -10 3 -10 -10z"/>
<path d="M1927 3806 c-3 -8 0 -17 7 -19 10 -4 12 1 9 14 -6 23 -9 24 -16 5z"/>
<path d="M2040 3815 c0 -5 5 -17 10 -25 5 -8 10 -10 10 -5 0 6 -5 17 -10 25
-5 8 -10 11 -10 5z"/>
<path d="M4490 3790 c0 -25 4 -30 25 -30 14 0 29 8 35 21 14 25 14 24 -27 32
-31 6 -33 5 -33 -23z"/>
<path d="M1135 3800 c-3 -6 1 -7 9 -4 18 7 21 14 7 14 -6 0 -13 -4 -16 -10z"/>
<path d="M1890 3801 c0 -6 4 -13 10 -16 6 -3 7 1 4 9 -7 18 -14 21 -14 7z"/>
<path d="M1218 3793 c7 -3 16 -2 19 1 4 3 -2 6 -13 5 -11 0 -14 -3 -6 -6z"/>
<path d="M1356 3784 c-6 -15 -4 -15 11 -3 10 7 20 15 22 16 2 2 -3 3 -11 3 -9
0 -19 -7 -22 -16z"/>
<path d="M1057 3775 c5 -14 43 -28 43 -17 0 4 -11 12 -24 18 -19 9 -23 9 -19
-1z"/>
<path d="M1305 3780 c3 -5 8 -10 11 -10 2 0 4 5 4 10 0 6 -5 10 -11 10 -5 0
-7 -4 -4 -10z"/>
<path d="M1136 3754 c-4 -15 -4 -29 -1 -32 3 -3 8 4 12 16 3 12 12 22 20 22 8
0 11 5 8 10 -12 19 -33 10 -39 -16z"/>
<path d="M1426 3764 c-9 -24 -2 -26 12 -4 7 11 8 20 3 20 -5 0 -12 -7 -15 -16z"/>
<path d="M1970 3770 c0 -5 5 -10 11 -10 5 0 7 5 4 10 -3 6 -8 10 -11 10 -2 0
-4 -4 -4 -10z"/>
<path d="M1216 3755 c-16 -12 -17 -15 -4 -15 9 0 18 7 22 15 7 18 6 18 -18 0z"/>
<path d="M1605 3760 c3 -5 8 -10 11 -10 2 0 4 5 4 10 0 6 -5 10 -11 10 -5 0
-7 -4 -4 -10z"/>
<path d="M965 3750 c-3 -6 1 -7 9 -4 18 7 21 14 7 14 -6 0 -13 -4 -16 -10z"/>
<path d="M1020 3756 c0 -2 7 -7 16 -10 8 -3 12 -2 9 4 -6 10 -25 14 -25 6z"/>
<path d="M1255 3750 c-3 -5 -2 -10 4 -10 5 0 13 5 16 10 3 6 2 10 -4 10 -5 0
-13 -4 -16 -10z"/>
<path d="M1000 3735 c0 -11 -10 -14 -40 -12 -22 2 -40 0 -40 -5 0 -4 20 -8 45
-8 38 0 45 3 45 20 0 11 -2 20 -5 20 -3 0 -5 -7 -5 -15z"/>
<path d="M1344 3735 c-13 -8 -52 -15 -100 -18 -72 -3 -70 -3 28 -5 102 -2 106
-1 101 18 -6 24 -4 23 -29 5z"/>
<path d="M1555 3740 c3 -5 8 -10 11 -10 2 0 4 5 4 10 0 6 -5 10 -11 10 -5 0
-7 -4 -4 -10z"/>
<path d="M1456 3726 c3 -9 13 -16 22 -16 8 0 13 1 11 3 -2 1 -12 9 -22 16 -15
12 -17 12 -11 -3z"/>
<path d="M814 3681 c-8 -9 -4 -22 6 -16 6 3 10 1 10 -4 0 -6 -6 -11 -12 -11
-26 0 17 -20 44 -20 15 0 30 -4 33 -10 4 -6 60 -10 134 -10 105 0 131 3 142
16 42 51 127 58 185 16 l39 -28 42 29 c58 41 110 41 163 -2 35 -28 46 -32 93
-29 l52 3 0 35 0 34 -463 1 c-255 0 -466 -2 -468 -4z m361 -37 c-26 -20 -40
-24 -95 -22 l-65 2 65 3 c35 2 71 9 79 16 11 9 -21 13 -150 18 l-164 5 180 1
180 1 -30 -24z m265 21 c0 -1 -10 -11 -23 -23 l-23 -22 -24 25 -24 25 47 -1
c26 -1 47 -3 47 -4z m242 -2 c-55 -3 -61 -6 -48 -18 8 -8 21 -15 28 -16 10 0
10 -2 0 -6 -6 -2 -25 6 -41 20 l-29 24 76 0 c73 0 74 -1 14 -4z m49 -36 c-10
-9 -11 -8 -5 6 3 10 9 15 12 12 3 -3 0 -11 -7 -18z"/>
<path d="M1370 3656 c0 -9 30 -14 35 -6 4 6 -3 10 -14 10 -12 0 -21 -2 -21 -4z"/>
<path d="M508 3634 c-51 -22 -82 -84 -68 -136 28 -101 162 -121 221 -32 63 95
-45 214 -153 168z m86 -70 c19 -18 21 -55 4 -72 -7 -7 -24 -12 -38 -12 -33 0
-50 17 -50 50 0 14 5 31 12 38 17 17 54 15 72 -4z"/>
<path d="M534 3545 c-9 -23 3 -45 26 -45 25 0 37 25 20 45 -16 19 -39 19 -46
0z"/>
<path d="M5714 3638 c-3 -4 18 -8 45 -8 28 0 51 5 51 10 0 12 -89 10 -96 -2z"/>
<path d="M1195 3607 c-30 -30 -35 -41 -35 -84 0 -56 17 -86 62 -109 55 -28
138 0 159 53 l9 25 22 -28 c46 -60 92 -75 151 -51 63 27 87 95 58 166 -16 38
-56 61 -108 61 -45 0 -77 -20 -103 -63 l-19 -31 -9 25 c-16 40 -48 62 -102 67
-46 4 -52 2 -85 -31z m109 -40 c21 -16 24 -60 6 -82 -18 -22 -57 -18 -74 7
-21 30 -20 44 4 68 23 23 39 25 64 7z m248 -4 c41 -37 3 -105 -50 -87 -21 7
-28 17 -30 44 -5 53 41 78 80 43z"/>
<path d="M1255 3546 c-20 -15 -15 -43 10 -52 18 -7 45 12 45 32 0 22 -35 35
-55 20z"/>
<path d="M1497 3545 c-18 -18 -13 -40 11 -50 23 -9 49 21 36 42 -15 24 -29 26
-47 8z"/>
<path d="M819 3617 c5 -5 24 -7 42 -5 33 3 33 4 -8 8 -23 3 -39 2 -34 -3z"/>
<path d="M973 3582 c-155 -2 -163 -4 -163 -22 0 -19 7 -20 159 -20 153 0 160
1 166 21 4 11 5 21 3 22 -1 1 -76 1 -165 -1z"/>
<path d="M1652 3566 c4 -30 68 -37 68 -8 0 15 -8 21 -35 24 -32 4 -36 2 -33
-16z"/>
<path d="M1950 2731 c-5 -11 -10 -31 -10 -44 0 -24 1 -24 130 -31 71 -4 134
-4 140 -1 14 9 13 68 -2 83 -8 8 -51 12 -130 12 -106 0 -118 -2 -128 -19z"/>
<path d="M1945 2609 c-3 -4 -10 -128 -15 -276 -5 -147 -12 -289 -14 -315 l-5
-47 161 -122 161 -122 -7 438 c-4 242 -8 440 -9 441 -7 7 -268 10 -272 3z"/>
<path d="M875 2105 c0 -206 0 -375 0 -375 0 1 570 190 572 190 2 0 3 -4 3 -8
0 -4 -75 -32 -167 -61 -93 -30 -221 -72 -286 -93 -64 -21 -121 -37 -126 -34
-5 4 -29 -3 -53 -14 -37 -18 -39 -20 -13 -16 l30 5 -27 -12 -28 -11 0 -201 c0
-145 3 -204 12 -213 10 -10 10 -17 1 -32 -9 -13 -12 -110 -13 -339 l0 -321
762 0 763 0 -2 552 c-2 410 -5 554 -14 557 -7 2 -9 -1 -4 -9 6 -9 3 -9 -11 -1
-31 18 -54 38 -55 47 0 5 -28 29 -62 53 -135 98 -204 151 -252 196 -89 84 -69
83 -270 15 -98 -33 -180 -60 -181 -60 -2 0 -4 126 -4 280 l0 280 -287 0 -288
0 0 -375z m365 275 c6 -11 17 -20 25 -20 19 0 19 -4 0 -40 -13 -25 -22 -30
-51 -30 -29 0 -35 3 -30 16 3 9 0 24 -7 34 -12 18 -14 17 -25 -14 -19 -51 -32
-58 -70 -35 -30 20 -31 22 -17 48 20 39 41 54 66 46 14 -5 19 -4 15 4 -5 7 8
11 38 11 35 0 48 -5 56 -20z m72 -122 c20 -35 21 -39 5 -56 -9 -10 -14 -21
-11 -25 4 -3 -4 -22 -16 -41 -15 -25 -29 -36 -46 -36 -13 0 -24 -4 -24 -10 0
-21 -17 -9 -35 23 -17 32 -17 35 0 60 17 27 35 36 35 17 0 -5 9 -10 20 -10 25
0 25 1 -1 45 -12 20 -20 37 -18 39 26 20 55 36 62 33 5 -1 18 -19 29 -39z
m-217 -2 c30 -39 31 -46 8 -40 -12 3 -24 -6 -36 -28 -10 -18 -13 -27 -6 -20 7
6 32 12 56 12 l43 0 0 -40 0 -40 -43 0 c-46 0 -79 26 -110 86 -15 29 -15 33 0
54 12 17 13 25 5 28 -20 6 -6 17 27 19 24 2 36 -5 56 -31z m765 -267 c44 -40
32 -36 -23 8 -16 13 -35 20 -45 17 -14 -5 -15 -4 -2 5 21 15 20 15 70 -30z
m-160 -9 c-8 -5 -19 -10 -25 -10 -5 0 -3 5 5 10 8 5 20 10 25 10 6 0 3 -5 -5
-10z m-104 -36 c-38 -13 -71 -22 -73 -20 -5 5 107 44 127 44 8 0 -16 -10 -54
-24z m-536 -353 c5 -11 10 -50 10 -87 0 -86 -14 -104 -81 -104 -72 0 -83 16
-76 111 3 43 8 82 12 88 3 6 33 11 65 11 48 0 61 -4 70 -19z m268 7 c7 -7 12
-43 12 -93 0 -50 -5 -86 -12 -93 -16 -16 -110 -16 -126 0 -16 16 -16 170 0
186 7 7 35 12 63 12 28 0 56 -5 63 -12z m280 0 c7 -7 12 -45 12 -99 0 -98 -1
-99 -80 -99 -73 0 -84 16 -75 109 4 42 12 82 17 89 13 16 110 16 126 0z m274
-5 c14 -13 18 -31 18 -94 0 -69 -2 -80 -22 -93 -12 -9 -38 -16 -58 -16 -20 0
-46 7 -58 16 -19 13 -22 24 -22 91 0 95 13 113 78 113 28 0 52 -6 64 -17z
m276 5 c8 -8 12 -45 12 -100 0 -98 -7 -108 -75 -108 -68 0 -75 10 -75 107 0
70 3 88 18 99 21 17 104 18 120 2z m-610 -1001 l747 -2 -752 -3 -753 -2 2 68
2 67 3 -62 4 -63 747 -3z"/>
<path d="M934 1587 c-2 -8 -4 -49 -2 -93 l3 -79 55 0 55 0 0 90 0 90 -53 3
c-37 2 -54 -1 -58 -11z"/>
<path d="M1214 1587 c-2 -8 -4 -49 -2 -93 l3 -79 52 -3 c62 -4 66 3 61 113
l-3 70 -53 3 c-37 2 -54 -1 -58 -11z"/>
<path d="M1492 1591 c-9 -5 -12 -31 -10 -92 l3 -84 54 -3 c37 -2 57 1 62 10
13 20 11 152 -3 166 -14 14 -86 16 -106 3z"/>
<path d="M1773 1593 c-9 -3 -13 -32 -13 -94 l0 -90 58 3 57 3 3 84 c2 53 -1
87 -8 91 -13 8 -80 10 -97 3z"/>
<path d="M2034 1577 c-3 -8 -4 -47 -2 -88 l3 -74 60 0 60 0 0 85 0 85 -58 3
c-42 2 -59 -1 -63 -11z"/>
<path d="M4345 1705 c-64 -97 -113 -180 -110 -185 6 -10 1181 -14 1197 -4 5 3
2 16 -7 30 -8 13 -47 79 -86 146 -39 68 -82 138 -95 156 l-25 32 -380 0 -379
0 -115 -175z"/>
<path d="M2245 1700 c10 -11 23 -20 28 -20 6 0 2 9 -8 20 -10 11 -23 20 -28
20 -6 0 -2 -9 8 -20z"/>
<path d="M4266 1481 c-3 -5 -3 -216 1 -470 l6 -461 564 0 563 0 -2 468 -3 467
-562 3 c-325 1 -564 -2 -567 -7z m209 -129 c-18 -37 -38 -84 -44 -105 -14 -43
-35 -57 -84 -57 l-35 0 50 118 49 117 48 -3 49 -4 -33 -66z m175 74 c0 -3 -22
-57 -49 -120 l-49 -116 59 0 c32 0 59 4 59 9 0 5 21 59 47 120 l47 111 63 0
c35 0 63 -1 63 -2 0 -4 -53 -132 -79 -190 l-20 -48 55 0 c47 0 56 3 64 23 5
12 25 60 45 106 20 46 33 86 30 89 -2 3 -12 -12 -21 -34 -75 -181 -67 -169
-112 -172 l-42 -3 26 58 c14 32 35 81 47 109 l21 51 75 7 c91 7 151 8 151 1 0
-3 -9 -24 -21 -47 -12 -23 -27 -57 -34 -77 -7 -20 -20 -53 -29 -74 l-17 -38
56 3 56 3 43 100 c24 55 46 108 49 118 5 14 18 17 68 17 71 0 70 10 15 -120
l-37 -85 -2 -240 -2 -240 -443 -3 -443 -2 4 187 c2 104 7 200 12 216 4 16 3
27 -3 27 -5 0 -12 -12 -15 -27 -11 -51 -22 -59 -51 -39 -16 10 -26 26 -26 41
0 22 4 25 40 25 22 0 40 5 40 10 0 6 8 10 18 10 12 0 30 31 66 120 l50 120 63
0 c35 0 63 -2 63 -4z m94 -14 c-12 -7 -84 -181 -84 -201 0 -6 -17 -11 -40 -11
-22 0 -40 2 -40 6 0 3 18 47 40 99 22 52 40 99 40 104 0 6 21 11 48 11 26 0
42 -4 36 -8z m461 -29 c-9 -21 -30 -71 -47 -110 -32 -73 -32 -73 -71 -73 -31
0 -38 3 -33 15 31 81 80 185 88 185 5 0 6 5 3 10 -4 6 10 10 35 10 l40 0 -15
-37z"/>
<path d="M4406 1385 c-9 -26 -7 -32 5 -12 6 10 9 21 6 23 -2 3 -7 -2 -11 -11z"/>
<path d="M4552 1143 c2 -18 13 -33 31 -43 27 -14 29 -14 48 9 10 13 19 32 19
42 0 16 -8 19 -51 19 -49 0 -50 -1 -47 -27z m78 -14 c-14 -24 -53 -22 -58 4
-3 14 4 17 33 17 33 0 35 -2 25 -21z"/>
<path d="M4787 1147 c16 -62 66 -75 89 -22 7 19 14 36 14 37 0 2 -24 4 -54 5
-51 2 -54 1 -49 -20z m83 -1 c0 -20 -16 -36 -36 -36 -13 0 -24 2 -24 4 0 2 -3
11 -6 20 -5 13 1 16 30 16 20 0 36 -2 36 -4z"/>
<path d="M5030 1143 c0 -27 25 -53 51 -53 13 0 25 12 35 35 7 19 14 36 14 37
0 2 -22 3 -50 3 -45 0 -50 -2 -50 -22z m80 0 c-1 -35 -62 -44 -68 -10 -3 14 4
17 32 17 20 0 36 -3 36 -7z"/>
<path d="M5106 1012 c-4 -7 -15 -12 -25 -12 -10 0 -25 -8 -33 -17 -16 -18 -49
-181 -39 -187 3 -2 33 -7 67 -11 l61 -7 6 29 c3 15 9 56 12 89 6 54 5 64 -13
82 -11 11 -21 25 -24 33 -3 10 -6 10 -12 1z m5 -35 c-13 -13 -26 -3 -16 12 3
6 11 8 17 5 6 -4 6 -10 -1 -17z m11 -83 c16 -35 0 -60 -38 -57 -42 3 -58 29
-36 59 23 32 59 31 74 -2z"/>
<path d="M5071 886 c-17 -20 -10 -29 19 -24 19 3 19 5 8 21 -13 17 -15 17 -27
3z"/>
<path d="M4585 1003 c-46 -11 -60 -47 -78 -192 -2 -18 123 -44 128 -27 2 6 9
43 14 83 8 53 8 79 -1 98 -12 27 -33 33 -41 13 -2 -7 -8 -10 -12 -6 -4 4 -2
14 5 23 7 8 11 14 9 14 -2 -1 -13 -4 -24 -6z m35 -109 c14 -35 -4 -68 -33 -60
-12 3 -27 6 -33 6 -21 0 -24 31 -6 55 23 33 60 32 72 -1z"/>
<path d="M4565 880 c-18 -20 -17 -20 14 -20 29 0 31 2 21 20 -6 11 -12 20 -14
20 -2 0 -11 -9 -21 -20z"/>
<path d="M4834 1003 c-36 -7 -53 -36 -64 -109 -15 -105 -17 -99 51 -110 33 -6
62 -8 64 -5 1 3 9 41 15 84 10 58 10 84 2 102 -12 27 -37 33 -45 13 -2 -7 -8
-10 -12 -6 -4 4 -2 14 5 23 7 8 11 14 9 14 -2 -1 -14 -4 -25 -6z m37 -110 c14
-38 0 -59 -37 -55 -16 2 -35 9 -43 17 -11 11 -10 17 5 39 26 35 61 34 75 -1z"/>
<path d="M4822 888 c-18 -18 -14 -28 12 -28 19 0 23 4 19 20 -6 23 -14 25 -31
8z"/>
<path d="M2475 1437 c-3 -6 -4 -176 -3 -377 l3 -365 51 -3 c49 -3 52 -2 59 25
17 69 87 123 157 123 44 -1 114 -33 128 -60 l12 -23 22 26 c11 15 38 33 58 42
86 35 167 3 208 -82 l25 -52 185 2 185 2 3 364 c2 260 -1 368 -9 377 -16 20
-1077 21 -1084 1z m288 -105 c-10 -10 -20 -17 -22 -16 -6 5 20 34 30 34 5 0 1
-8 -8 -18z m332 8 c3 -6 -1 -7 -10 -4 -9 4 -22 -1 -31 -12 -14 -18 -14 -18 -4
4 11 23 34 29 45 12z m301 -2 c4 -7 3 -8 -5 -4 -6 4 -20 2 -29 -6 -15 -12 -16
-11 -3 5 16 20 27 22 37 5z m-306 -47 c-5 -11 -15 -23 -21 -27 -6 -3 -3 5 6
20 20 30 30 35 15 7z m272 -32 c-24 -21 -41 -43 -38 -48 9 -14 36 -2 36 15 0
27 27 13 44 -22 13 -28 15 -50 10 -90 -8 -70 -24 -60 -17 10 4 40 2 60 -10 77
-14 20 -17 20 -23 6 -9 -23 -41 -21 -49 3 -8 25 -17 25 -38 2 -19 -20 -37 -91
-42 -164 -2 -26 -6 -52 -10 -58 -3 -5 -5 -10 -3 -10 2 -1 36 -7 76 -14 50 -8
72 -9 74 -2 0 6 2 24 3 39 1 15 8 33 15 40 10 10 11 1 5 -43 -4 -30 -9 -57
-11 -59 -7 -8 -179 26 -177 35 1 5 9 57 19 114 18 115 44 160 92 160 13 0 35
13 50 28 15 15 29 26 32 24 3 -2 -15 -21 -38 -43z m-590 18 c-26 -27 -28 -37
-8 -37 16 0 46 -53 46 -82 0 -11 -7 -65 -16 -121 l-16 -102 -89 14 c-97 17
-94 14 -80 86 l7 40 17 -31 c9 -19 27 -34 43 -38 14 -4 24 -9 21 -13 -3 -3
-20 2 -38 11 -40 20 -39 20 -39 -4 0 -12 8 -21 23 -24 117 -25 117 -25 123 1
4 13 4 27 0 30 -3 3 0 13 6 21 13 16 19 84 7 76 -4 -2 -1 9 7 25 13 27 13 33
-2 62 -15 30 -18 31 -29 16 -16 -23 -31 -21 -49 5 -15 21 -16 21 -35 4 -10 -9
-22 -34 -26 -54 -3 -20 -8 -46 -11 -57 -3 -11 -2 -16 3 -10 26 33 65 53 99 50
20 -2 39 -7 43 -11 3 -4 -2 -4 -13 0 -14 5 -17 3 -11 -11 4 -10 9 -32 12 -48
12 -74 -90 -86 -129 -15 -38 70 5 190 68 190 13 0 36 11 51 25 35 31 43 32 15
2z m294 -37 c7 0 23 -17 33 -39 20 -38 20 -40 2 -145 -10 -59 -21 -109 -24
-112 -3 -3 -44 0 -91 7 l-85 13 5 30 c3 17 8 42 11 56 5 23 6 24 13 5 4 -11 3
-31 -2 -44 -5 -13 -6 -26 -3 -29 2 -3 36 -10 74 -17 l69 -12 4 28 c4 27 4 27
-23 13 -25 -12 -33 -12 -69 2 -22 9 -40 20 -40 24 0 4 18 -1 39 -12 45 -22 69
-15 96 26 15 23 16 77 2 76 -10 0 -11 -3 -3 -27 5 -14 1 -31 -10 -48 -15 -23
-21 -26 -58 -20 -61 10 -86 54 -51 89 9 8 14 20 13 27 -4 17 53 18 81 1 22
-13 24 -13 18 4 -7 18 -6 18 7 2 7 -10 16 -18 20 -18 11 0 6 54 -8 78 -11 21
-14 22 -25 8 -18 -22 -38 -20 -53 4 -12 19 -13 19 -35 -2 -13 -12 -23 -33 -23
-49 0 -15 -7 -40 -15 -55 -14 -28 -14 -27 -9 26 5 42 13 62 37 87 28 30 78 48
85 31 2 -5 10 -8 18 -8z m-386 -84 c0 -2 -8 -10 -17 -17 -16 -13 -17 -12 -4 4
13 16 21 21 21 13z m610 0 c0 -2 -8 -10 -17 -17 -16 -13 -17 -12 -4 4 13 16
21 21 21 13z m59 -23 c30 -26 37 -73 14 -102 -16 -19 -24 -22 -56 -16 -42 8
-72 43 -63 72 6 17 62 63 77 63 4 0 16 -8 28 -17z m41 2 c0 -12 -19 -12 -23 0
-4 9 -1 12 9 8 7 -3 14 -7 14 -8z m-46 -135 c14 5 26 7 26 5 0 -3 -11 -10 -24
-15 -25 -9 -106 14 -106 31 0 4 18 -1 39 -12 31 -14 46 -17 65 -9z m-588 1
c-6 -9 -46 -22 -46 -15 0 3 10 9 23 14 29 11 29 11 23 1z"/>
<path d="M2714 1229 c-7 -12 15 -31 28 -23 4 3 8 12 8 20 0 17 -26 19 -36 3z"/>
<path d="M2700 1101 c0 -5 -7 -17 -16 -25 -12 -12 -12 -16 -2 -17 7 0 22 -2
34 -3 16 -2 20 2 16 16 -5 20 -22 25 -22 6 0 -6 -3 -8 -6 -5 -4 4 -1 13 6 22
8 10 9 15 1 15 -6 0 -11 -4 -11 -9z"/>
<path d="M3022 1224 c4 -21 22 -23 26 -1 2 10 -3 17 -13 17 -10 0 -15 -6 -13
-16z"/>
<path d="M2992 1085 c-14 -16 -17 -25 -9 -26 6 0 21 -2 33 -3 16 -2 20 2 16
16 -2 10 -9 18 -14 18 -5 0 -6 5 -3 10 11 18 -1 10 -23 -15z"/>
<path d="M3302 1093 c-7 -7 -9 -13 -5 -13 4 0 1 -5 -7 -10 -13 -9 -13 -10 0
-11 8 0 23 -2 32 -4 11 -2 16 3 15 14 -2 27 -21 40 -35 24z"/>
<path d="M781 1244 c0 -11 3 -14 6 -6 3 7 2 16 -1 19 -3 4 -6 -2 -5 -13z"/>
<path d="M3620 970 l0 -280 33 0 c24 0 33 5 34 18 2 27 42 91 65 103 11 6 17
13 14 17 -4 3 -23 -10 -43 -29 -21 -19 -31 -25 -23 -14 17 23 37 41 64 56 14
9 17 8 11 -2 -6 -9 -3 -11 9 -6 10 4 30 10 44 14 24 6 24 7 7 13 -13 5 -4 7
25 7 25 -1 36 -3 25 -5 -14 -3 -6 -9 30 -23 61 -23 64 -23 39 -3 -18 14 -18
15 4 4 12 -6 20 -15 17 -19 -5 -9 14 -29 28 -29 5 0 12 -4 15 -8 4 -4 1 -4 -7
1 -7 4 -12 4 -10 -1 2 -5 12 -30 23 -57 13 -33 24 -47 38 -47 18 0 19 9 16
213 l-3 212 -54 73 -53 72 -174 0 -173 0 -1 -280z m351 253 c13 -17 13 -17 -6
-3 -11 8 -22 16 -24 17 -2 2 0 3 6 3 6 0 17 -8 24 -17z m-78 -10 c-24 -2 -62
-2 -85 0 -24 2 -5 4 42 4 47 0 66 -2 43 -4z m-6 -16 c35 -2 59 1 56 6 -3 5 4
4 14 -2 11 -6 23 -8 26 -5 3 3 8 0 13 -7 5 -8 3 -10 -6 -4 -8 5 -11 3 -8 -6 3
-8 10 -13 16 -12 12 3 62 -64 62 -82 0 -5 -12 9 -26 33 -14 23 -29 40 -34 37
-5 -3 -16 5 -24 17 -9 12 -18 19 -22 16 -6 -7 55 -94 65 -91 3 1 7 -31 8 -70
2 -83 -12 -107 -62 -107 -17 0 -35 3 -38 6 -9 9 -166 11 -161 2 3 -4 -2 -5
-10 -2 -9 3 -16 10 -16 16 0 5 5 6 11 3 7 -5 10 33 7 126 l-3 134 35 -2 c19
-1 63 -4 97 -6z m183 -493 c0 -2 -7 -4 -15 -4 -8 0 -15 4 -15 10 0 5 7 7 15 4
8 -4 15 -8 15 -10z m-407 -1 c-7 -2 -19 -2 -25 0 -7 3 -2 5 12 5 14 0 19 -2
13 -5z"/>
<path d="M3816 1137 c-12 -9 -17 -23 -14 -42 2 -25 8 -31 33 -33 19 -3 33 2
42 14 17 24 17 30 -7 54 -24 24 -30 24 -54 7z"/>
<path d="M3786 1024 c-3 -9 -6 -31 -6 -50 l0 -34 60 0 c49 0 60 3 60 17 0 15
2 15 19 -1 12 -11 31 -16 53 -14 42 4 43 22 1 26 -22 2 -39 13 -58 38 -23 30
-31 34 -74 34 -35 0 -51 -4 -55 -16z"/>
<path d="M5670 1146 c-6 -8 -10 -25 -8 -38 3 -20 9 -23 43 -23 34 0 40 3 43
23 4 30 -14 52 -43 52 -12 0 -28 -7 -35 -14z m58 -30 c3 -25 1 -27 -25 -24
-22 2 -27 7 -25 23 8 43 45 44 50 1z"/>
<path d="M5616 1010 c-35 -33 -47 -52 -59 -101 -8 -33 -13 -58 -9 -55 3 3 11
1 18 -4 9 -8 15 2 24 42 9 35 23 61 44 80 17 15 26 28 20 28 -21 0 -63 -56
-74 -99 -6 -23 -13 -41 -16 -38 -3 2 1 26 8 52 18 65 82 125 136 125 33 0 43
-6 75 -45 30 -35 47 -46 78 -51 22 -4 42 -11 45 -16 3 -5 -6 -6 -23 -2 -51 12
-93 33 -99 49 -3 8 -13 15 -21 15 -11 0 -9 -7 8 -25 28 -30 126 -62 141 -47
16 16 1 30 -41 37 -27 4 -51 19 -82 51 -38 39 -48 44 -86 44 -37 0 -50 -6 -87
-40z"/>
<path d="M5662 970 c-1 -8 -5 -40 -8 -70 -8 -85 -34 -188 -54 -213 -28 -34
-31 -17 -9 53 19 61 19 64 2 74 -10 5 -18 9 -18 7 0 -1 -17 5 -37 13 -20 9
-39 12 -42 8 -7 -12 -55 -146 -53 -148 1 -1 26 -9 54 -18 29 -10 55 -21 57
-25 3 -4 -9 -16 -25 -26 -31 -21 -38 -52 -14 -61 9 -4 40 16 79 51 64 56 97
113 96 169 -1 29 -15 3 -25 -44 -10 -51 -34 -85 -48 -71 -9 9 -9 14 1 20 23
14 53 149 49 225 -1 39 -4 64 -5 56z m-116 -178 c6 -4 14 -19 17 -33 9 -35
-11 -53 -46 -40 -37 14 -42 30 -16 57 24 26 28 27 45 16z m68 -131 c8 -13 -31
-44 -45 -35 -8 4 -10 3 -5 -5 8 -12 -34 -52 -46 -44 -15 9 -8 20 29 46 21 15
33 27 28 27 -6 0 -3 5 5 10 19 12 27 12 34 1z"/>
<path d="M5517 763 c-12 -11 -8 -23 8 -23 8 0 15 7 15 15 0 16 -12 20 -23 8z"/>
<path d="M5743 925 c0 -27 2 -38 4 -22 2 15 2 37 0 50 -2 12 -4 0 -4 -28z"/>
<path d="M5740 854 c0 -8 16 -53 35 -100 20 -47 32 -90 29 -96 -4 -6 -3 -8 3
-5 13 8 36 -50 26 -66 -4 -6 -1 -7 7 -2 9 5 11 4 6 -4 -11 -18 -39 8 -33 31 3
10 2 16 -2 14 -4 -3 -25 36 -47 87 -23 50 -47 93 -55 95 -9 2 -10 0 -4 -5 6
-4 33 -60 61 -123 39 -91 54 -115 69 -115 29 0 23 27 -30 152 -25 58 -45 116
-45 129 0 13 -4 24 -10 24 -5 0 -10 -7 -10 -16z"/>
<path d="M2695 805 c-161 -58 -83 -310 83 -266 43 12 75 41 93 86 l11 30 14
-31 c41 -98 157 -119 230 -43 26 27 29 37 29 95 0 63 -2 67 -37 100 -33 30
-44 34 -92 34 -60 0 -96 -21 -121 -71 -19 -37 -26 -36 -45 3 -29 62 -96 88
-165 63z m89 -76 c50 -39 24 -119 -39 -119 -24 0 -39 7 -54 26 -27 35 -26 59
4 89 30 30 54 31 89 4z m264 15 c34 -10 57 -59 42 -94 -17 -40 -62 -57 -95
-36 -37 25 -49 52 -35 86 6 15 21 32 33 38 27 13 27 13 55 6z"/>
<path d="M2725 694 c-15 -15 -15 -19 -1 -32 17 -17 46 -10 46 11 0 8 -6 20
-14 26 -11 9 -18 8 -31 -5z"/>
<path d="M3004 685 c-4 -9 -2 -21 4 -27 15 -15 44 -1 40 19 -4 23 -36 29 -44
8z"/>
<path d="M3804 810 c-31 -12 -72 -66 -80 -105 -8 -45 10 -95 46 -130 23 -22
42 -29 84 -33 52 -4 56 -3 98 36 41 39 43 43 43 99 0 66 -20 103 -72 128 -34
16 -86 19 -119 5z m104 -76 c46 -32 12 -124 -47 -124 -13 0 -35 10 -48 22 -65
61 21 154 95 102z"/>
<path d="M3840 694 c-11 -12 -10 -18 3 -32 16 -15 18 -15 34 0 13 14 14 20 3
32 -7 9 -16 16 -20 16 -4 0 -13 -7 -20 -16z"/>
</g>
</svg>
